<svg xmlns="http://www.w3.org/2000/svg" preserveAspectRatio="xMidYMid" width="57" height="114" viewBox="0 0 57 114"><defs><style>.cls-3,.cls-4{fill:#000;filter:url(#color-overlay-1)}.cls-4{filter:url(#color-overlay-2)}</style><filter id="color-overlay-1" filterUnits="userSpaceOnUse"><feFlood flood-color="#ff0e69" flood-opacity="1"/><feComposite operator="in" in2="SourceGraphic"/><feBlend in2="SourceGraphic" result="colorOverlay"/></filter><filter id="color-overlay-2" filterUnits="userSpaceOnUse"><feFlood flood-color="#538cf3" flood-opacity="1"/><feComposite operator="in" in2="SourceGraphic"/><feBlend in2="SourceGraphic" result="colorOverlay"/></filter></defs><g id="группа-1svg"><path d="M49.224 98.451h-2.592l7.124-11.657H20.728v-2.585h33.028l-7.124-11.662h2.592l7.77 12.952-7.77 12.952zM36.271 59.594H2.595v51.81h33.676V97.156h2.589v16.838H.004v-56.99H38.86v16.838h-2.589V59.594z" id="path-1" class="cls-3" fill-rule="evenodd"/><path d="M49.224 41.451h-2.592l7.124-11.657H20.728v-2.585h33.028l-7.124-11.662h2.592l7.77 12.952-7.77 12.952zM36.271 2.594H2.595v51.81h33.676V40.156h2.589v16.838H.004V.004H38.86v16.838h-2.589V2.594z" id="path-2" class="cls-4" fill-rule="evenodd"/></g></svg>