<svg xmlns="http://www.w3.org/2000/svg" width="245" height="67" viewBox="0 0 245 67">
  <g fill="none" fill-rule="evenodd">
    <path fill="#58712E" d="M60.7273,39.8169 L66.4694,39.8169 C66.3203,38.454 65.8645,37.321 65.102,36.4179 C64.3395,35.5148 63.3088,35.0632 62.0009,35.0632 C61.0128,35.0632 60.178,35.3359 59.5047,35.8855 C58.8318,36.4349 58.3547,37.1634 58.082,38.0705 L54.4273,37.2357 C54.7981,35.6129 55.6244,34.3137 56.9022,33.3338 C58.1801,32.3584 59.8415,31.8686 61.8904,31.8686 C64.5524,31.8686 66.6313,32.7504 68.1263,34.5181 C69.6258,36.2858 70.3753,38.5904 70.3753,41.4273 C70.3753,43.3568 70.0261,45.0179 69.3319,46.4066 C68.6374,47.7953 67.6832,48.873 66.4694,49.6398 C65.2554,50.4023 63.7901,50.7856 62.0777,50.7856 C57.9074,50.7856 55.3389,48.8263 54.3763,44.9074 L58.082,43.7613 C58.2739,45.082 58.7467,46.0616 59.5005,46.7006 C60.2502,47.3352 61.1534,47.6547 62.201,47.6547 C63.283,47.6547 64.2074,47.2757 64.9784,46.5174 C65.7452,45.7634 66.2435,44.5494 66.4694,42.8883 L60.7273,42.8883 L60.7273,39.8169 Z M73.3953,32.1795 L77.0886,32.1795 L77.0886,39.966 C77.9149,39.8852 78.4728,39.6723 78.7625,39.3313 C79.0522,38.9906 79.5037,38.0407 80.1086,36.4859 C80.8754,34.5054 81.6461,33.2743 82.4172,32.7929 C83.1839,32.3074 84.4193,32.0687 86.1232,32.0687 C86.2082,32.0687 86.3874,32.0647 86.6598,32.0559 L86.6598,34.7866 L86.1359,34.7735 C85.3819,34.7735 84.8283,34.8673 84.4788,35.0547 C84.1296,35.2421 83.8441,35.5275 83.6312,35.9111 C83.4141,36.2943 83.0946,37.0781 82.6686,38.2709 C82.443,38.9013 82.2,39.4294 81.9401,39.8555 C81.6762,40.277 81.2119,40.6775 80.5474,41.0523 C81.3695,41.2867 82.0509,41.7552 82.5875,42.4622 C83.1244,43.1694 83.7123,44.1704 84.3512,45.4567 L86.8471,50.4746 L82.5067,50.4746 L80.3215,45.7464 C80.2875,45.6784 80.2192,45.5506 80.1086,45.3589 C80.0701,45.2906 79.9125,45.0052 79.6486,44.4983 C79.1757,43.5995 78.7837,43.0374 78.4813,42.8114 C78.1788,42.5858 77.7148,42.4707 77.0886,42.4622 L77.0886,50.4746 L73.3953,50.4746 L73.3953,32.1795 Z M88.1848,41.44 C88.1848,39.5743 88.4618,38.011 89.0196,36.7459 C89.4372,35.8172 90.0038,34.9782 90.7235,34.2369 C91.4435,33.4999 92.2316,32.9506 93.0876,32.5928 C94.2291,32.1072 95.5413,31.8686 97.032,31.8686 C99.7283,31.8686 101.8838,32.7034 103.5024,34.3775 C105.121,36.0474 105.9306,38.3729 105.9306,41.3505 C105.9306,44.3067 105.1252,46.6155 103.5194,48.2851 C101.9136,49.9508 99.7666,50.7856 97.0831,50.7856 C94.3612,50.7856 92.1973,49.955 90.5914,48.2979 C88.9856,46.6368 88.1848,44.3492 88.1848,41.44 L88.1848,41.44 Z M91.9886,41.3164 C91.9886,43.3866 92.47,44.9584 93.4241,46.0276 C94.3825,47.0969 95.5966,47.6292 97.0703,47.6292 C98.5401,47.6292 99.7496,47.1011 100.6952,46.0361 C101.6366,44.9754 102.1094,43.3866 102.1094,41.2654 C102.1094,39.1695 101.6494,37.6062 100.7338,36.5712 C99.8137,35.5403 98.5911,35.0249 97.0703,35.0249 C95.5455,35.0249 94.3187,35.5488 93.3858,36.5925 C92.4572,37.6362 91.9886,39.208 91.9886,41.3164 L91.9886,41.3164 Z M120.5196,43.7486 L124.0978,44.8819 C123.5482,46.8794 122.6365,48.362 121.3587,49.3331 C120.0851,50.3 118.4622,50.7856 116.4987,50.7856 C114.0705,50.7856 112.0727,49.955 110.5096,48.2979 C108.9463,46.6368 108.1626,44.3662 108.1626,41.4911 C108.1626,38.4455 108.9506,36.0814 110.5224,34.3945 C112.0942,32.7119 114.1601,31.8686 116.7243,31.8686 C118.9606,31.8686 120.7796,32.5288 122.1768,33.8537 C123.0116,34.6332 123.6335,35.7577 124.0507,37.2229 L120.3918,38.0963 C120.1789,37.1464 119.7273,36.3966 119.0374,35.847 C118.3514,35.2976 117.5166,35.0249 116.5369,35.0249 C115.1823,35.0249 114.079,35.5105 113.2357,36.4859 C112.3921,37.4571 111.9706,39.0331 111.9706,41.2141 C111.9706,43.5272 112.3836,45.1755 113.2187,46.1555 C114.0493,47.1394 115.1312,47.6292 116.4601,47.6292 C117.4443,47.6292 118.2876,47.3182 118.9946,46.6921 C119.7018,46.0701 120.2087,45.0862 120.5196,43.7486 L120.5196,43.7486 Z M130.7513,50.4746 L130.7513,35.2764 L125.3243,35.2764 L125.3243,32.1795 L139.8627,32.1795 L139.8627,35.2764 L134.4485,35.2764 L134.4485,50.4746 L130.7513,50.4746 Z M142.248,50.4746 L142.248,32.1795 L148.173,32.1795 C150.418,32.1795 151.8833,32.2734 152.5647,32.4565 C153.6127,32.7292 154.4943,33.3253 155.2015,34.2454 C155.9085,35.1655 156.2622,36.3538 156.2622,37.8066 C156.2622,38.9311 156.0576,39.8767 155.6488,40.6392 C155.2398,41.406 154.7244,42.0064 154.094,42.4452 C153.4678,42.8797 152.8289,43.1694 152.1815,43.31 C151.2996,43.4847 150.0218,43.574 148.3476,43.574 L145.941,43.574 L145.941,50.4746 L142.248,50.4746 Z M145.941,35.2764 L145.941,40.4646 L147.9601,40.4646 C149.4169,40.4646 150.3923,40.3708 150.8824,40.1792 C151.3722,39.9876 151.7554,39.6894 152.0366,39.2803 C152.3136,38.8713 152.4539,38.3985 152.4539,37.8576 C152.4539,37.1932 152.258,36.6435 151.8663,36.2093 C151.4785,35.779 150.9802,35.5063 150.3837,35.3997 C149.941,35.3146 149.0549,35.2764 147.726,35.2764 L145.941,35.2764 Z M158.2088,41.44 C158.2088,39.5743 158.4857,38.011 159.0436,36.7459 C159.4611,35.8172 160.0278,34.9782 160.7475,34.2369 C161.4675,33.4999 162.2555,32.9506 163.1116,32.5928 C164.2531,32.1072 165.5653,31.8686 167.056,31.8686 C169.7523,31.8686 171.9078,32.7034 173.5264,34.3775 C175.1449,36.0474 175.9545,38.3729 175.9545,41.3505 C175.9545,44.3067 175.1492,46.6155 173.5434,48.2851 C171.9375,49.9508 169.7906,50.7856 167.107,50.7856 C164.3852,50.7856 162.2212,49.955 160.6154,48.2979 C159.0096,46.6368 158.2088,44.3492 158.2088,41.44 Z M162.0126,41.3164 C162.0126,43.3866 162.4939,44.9584 163.4481,46.0276 C164.4065,47.0969 165.6205,47.6292 167.0943,47.6292 C168.564,47.6292 169.7736,47.1011 170.7192,46.0361 C171.6606,44.9754 172.1334,43.3866 172.1334,41.2654 C172.1334,39.1695 171.6734,37.6062 170.7578,36.5712 C169.8376,35.5403 168.6151,35.0249 167.0943,35.0249 C165.5695,35.0249 164.3427,35.5488 163.4098,36.5925 C162.4812,37.6362 162.0126,39.208 162.0126,41.3164 L162.0126,41.3164 Z M178.885,32.1795 L182.3438,32.1795 L182.3438,44.3577 L189.7556,32.1795 L193.4358,32.1795 L193.4358,50.4746 L189.9812,50.4746 L189.9812,38.5306 L182.5782,50.4746 L178.885,50.4746 L178.885,32.1795 Z"/>
    <path fill="#3B3B3B" d="M58.7003,62.7288 L59.7102,62.8427 C59.6014,63.44 59.3188,63.9089 58.8621,64.2467 C58.4077,64.5849 57.8482,64.7539 57.1851,64.7539 C56.3563,64.7539 55.6876,64.5214 55.1842,64.056 C54.6793,63.5908 54.4259,62.923 54.4259,62.0527 C54.4259,61.4903 54.535,60.9982 54.7516,60.5764 C54.9699,60.1546 55.2995,59.8383 55.744,59.6274 C56.1868,59.4165 56.6704,59.3111 57.1911,59.3111 C57.8501,59.3111 58.3901,59.4551 58.8077,59.7414 C59.2269,60.0274 59.4959,60.4324 59.615,60.9597 L58.6144,61.0921 C58.5191,60.7423 58.3513,60.4795 58.1095,60.302 C57.8677,60.1263 57.5752,60.0376 57.2319,60.0376 C56.7132,60.0376 56.2919,60.1966 55.9682,60.5163 C55.6448,60.8341 55.4829,61.3381 55.4829,62.0275 C55.4829,62.7271 55.6388,63.2359 55.9529,63.554 C56.2647,63.8703 56.6721,64.0293 57.1755,64.0293 C57.5791,64.0293 57.9142,63.9222 58.1855,63.7096 C58.4568,63.497 58.628,63.1707 58.7003,62.7288 L58.7003,62.7288 Z M62.1262,59.4301 L67.0579,59.4301 L67.0579,60.1597 L65.104,60.1597 L65.104,64.6368 L64.0804,64.6368 L64.0804,60.1597 L62.1262,60.1597 L62.1262,59.4301 Z M70.1312,66.6318 L70.1312,59.4301 L71.0672,59.4301 L71.0672,60.1062 C71.2875,59.8417 71.5372,59.6424 71.8159,59.5103 C72.0931,59.3782 72.4301,59.3111 72.8261,59.3111 C73.3446,59.3111 73.8013,59.4267 74.1973,59.6543 C74.595,59.8837 74.8932,60.2065 75.0941,60.6232 C75.2971,61.0402 75.3983,61.4969 75.3983,61.994 C75.3983,62.5264 75.2872,63.0066 75.063,63.4335 C74.8404,63.8601 74.517,64.1866 74.0918,64.4143 C73.6666,64.6402 73.2202,64.7539 72.7522,64.7539 C72.4086,64.7539 72.1025,64.6921 71.8298,64.5682 C71.5565,64.4443 71.3343,64.287 71.1591,64.0979 L71.1591,66.6318 L70.1312,66.6318 Z M71.0613,62.0626 C71.0613,62.7322 71.2195,63.2277 71.5352,63.5489 C71.8513,63.8686 72.2354,64.0293 72.6838,64.0293 C73.1402,64.0293 73.532,63.8635 73.8577,63.5304 C74.1834,63.1991 74.3472,62.6854 74.3472,61.9889 C74.3472,61.3245 74.1873,60.8293 73.8696,60.4979 C73.5515,60.168 73.1714,60.0024 72.7306,60.0024 C72.2918,60.0024 71.9037,60.1782 71.5664,60.5297 C71.2291,60.8812 71.0613,61.3931 71.0613,62.0626 L71.0613,62.0626 Z M78.3446,62.0326 C78.3446,61.0685 78.657,60.3539 79.2826,59.8902 C79.8033,59.5052 80.4391,59.3111 81.1898,59.3111 C82.0243,59.3111 82.7071,59.5455 83.2355,60.0157 C83.7659,60.4843 84.0292,61.132 84.0292,61.9589 C84.0292,62.6301 83.9122,63.1574 83.678,63.5406 C83.4442,63.9256 83.1031,64.2235 82.6561,64.4358 C82.2077,64.6484 81.7201,64.7539 81.1898,64.7539 C80.3416,64.7539 79.6554,64.5214 79.1304,64.0526 C78.606,63.5857 78.3446,62.913 78.3446,62.0326 L78.3446,62.0326 Z M79.4017,62.0326 C79.4017,62.7004 79.5715,63.1991 79.9105,63.5304 C80.2498,63.8635 80.6773,64.0293 81.1898,64.0293 C81.7006,64.0293 82.1258,63.8618 82.4654,63.5287 C82.8024,63.1957 82.9722,62.6868 82.9722,62.004 C82.9722,61.3597 82.8024,60.871 82.4614,60.5396 C82.1201,60.2082 81.6972,60.0427 81.1898,60.0427 C80.6773,60.0427 80.2498,60.2082 79.9105,60.5379 C79.5715,60.8676 79.4017,61.3665 79.4017,62.0326 Z M87.3265,59.4301 L88.3543,59.4301 L88.3543,63.4017 L91.2054,59.4301 L92.3126,59.4301 L92.3126,64.6368 L91.2854,64.6368 L91.2854,60.6904 L88.4343,64.6368 L87.3265,64.6368 L87.3265,59.4301 Z M95.3976,59.4301 L100.329,59.4301 L100.329,60.1597 L98.3754,60.1597 L98.3754,64.6368 L97.3518,64.6368 L97.3518,60.1597 L95.3976,60.1597 L95.3976,59.4301 Z M107.423,62.9598 L108.486,63.0718 C108.3185,63.6058 108.0083,64.0191 107.5559,64.3136 C107.1015,64.6067 106.5224,64.7539 105.8183,64.7539 C104.9311,64.7539 104.2269,64.5197 103.7085,64.0509 C103.1877,63.5823 102.9284,62.9247 102.9284,62.0777 C102.9284,61.2006 103.1917,60.5212 103.7161,60.0376 C104.2425,59.554 104.9234,59.3111 105.7619,59.3111 C106.5729,59.3111 107.2362,59.5489 107.7487,60.0226 C108.2637,60.4962 108.5211,61.1641 108.5211,62.0224 C108.5211,62.076 108.5191,62.1548 108.5151,62.2585 L103.991,62.2585 C104.0278,62.8308 104.2172,63.2694 104.5562,63.5724 C104.8955,63.8768 105.317,64.0293 105.8239,64.0293 C106.2,64.0293 106.522,63.944 106.7893,63.7731 C107.0561,63.6041 107.2667,63.3331 107.4226,62.9598 L107.423,62.9598 Z M104.0478,61.532 L107.4349,61.532 C107.3901,61.0952 107.2594,60.7655 107.0468,60.5481 C106.7194,60.2082 106.2942,60.0376 105.7735,60.0376 C105.3018,60.0376 104.9038,60.1731 104.5821,60.4443 C104.2604,60.7153 104.0826,61.0785 104.0478,61.532 L104.0478,61.532 Z M111.9825,59.4301 L116.76,59.4301 L116.76,64.6368 L115.7362,64.6368 L115.7362,60.1597 L113.0121,60.1597 L113.0121,62.754 C113.0121,63.3581 112.9885,63.758 112.9437,63.9505 C112.897,64.143 112.7723,64.3122 112.5656,64.4559 C112.3607,64.5999 112.0625,64.6719 111.6744,64.6719 C111.4343,64.6719 111.1576,64.6586 110.8455,64.6317 L110.8455,63.8969 L111.298,63.8969 C111.5106,63.8969 111.6625,63.8768 111.7543,63.8403 C111.8459,63.8017 111.9063,63.743 111.9377,63.6611 C111.9686,63.5789 111.9825,63.313 111.9825,62.8612 L111.9825,59.4301 Z M120.381,59.4301 L121.4089,59.4301 L121.4089,61.4634 L122.7117,61.4634 C123.5618,61.4634 124.2149,61.6057 124.6729,61.8886 C125.1333,62.1715 125.3618,62.5615 125.3618,63.0585 C125.3618,63.4919 125.1704,63.8652 124.7883,64.173 C124.4062,64.4829 123.7939,64.6368 122.9512,64.6368 L120.381,64.6368 L120.381,59.4301 Z M121.4089,63.9106 L122.4891,63.9106 C123.1405,63.9106 123.6046,63.8417 123.8832,63.7045 C124.1604,63.5673 124.2988,63.353 124.2988,63.0636 C124.2988,62.8376 124.1973,62.6367 123.9906,62.4592 C123.786,62.2837 123.3293,62.195 122.6258,62.195 L121.4089,62.195 L121.4089,63.9106 Z M128.5887,59.4301 L129.6183,59.4301 L129.6183,61.5975 L132.4694,61.5975 L132.4694,59.4301 L133.4969,59.4301 L133.4969,64.6368 L132.4694,64.6368 L132.4694,62.3271 L129.6183,62.3271 L129.6183,64.6368 L128.5887,64.6368 L128.5887,59.4301 Z M141.0943,63.9942 C140.7122,64.272 140.3454,64.4678 139.9945,64.5832 C139.6413,64.6972 139.2631,64.7539 138.8595,64.7539 C138.1925,64.7539 137.6814,64.615 137.3228,64.3355 C136.966,64.056 136.7865,63.698 136.7865,63.2643 C136.7865,63.0083 136.8529,62.7756 136.9892,62.5647 C137.1241,62.3538 137.3013,62.1848 137.5198,62.0575 C137.7401,61.9306 137.9859,61.8333 138.2608,61.7681 C138.4615,61.7231 138.766,61.6777 139.1733,61.636 C140.0041,61.5504 140.6164,61.4501 141.0084,61.3313 C141.0124,61.2108 141.0144,61.1337 141.0144,61.102 C141.0144,60.7423 140.9169,60.4877 140.7216,60.342 C140.4605,60.1413 140.0685,60.0427 139.552,60.0427 C139.0681,60.0427 138.7112,60.1144 138.4791,60.2601 C138.2489,60.4058 138.0794,60.6635 137.9683,61.0334 L136.9643,60.9146 C137.0555,60.5464 137.206,60.2468 137.4144,60.0209 C137.623,59.7932 137.9272,59.6175 138.3232,59.4953 C138.7189,59.3731 139.1773,59.3111 139.7,59.3111 C140.2187,59.3111 140.638,59.3646 140.9614,59.4684 C141.2854,59.5738 141.5232,59.7045 141.6771,59.8635 C141.8294,60.0226 141.9348,60.2215 141.9972,60.4642 C142.0303,60.615 142.0479,60.886 142.0479,61.2777 L142.0479,62.4544 C142.0479,63.2762 142.0692,63.7949 142.1142,64.0109 C142.157,64.2283 142.2446,64.4375 142.3733,64.6368 L141.299,64.6368 C141.1935,64.4542 141.1232,64.2402 141.0943,63.9942 L141.0943,63.9942 Z M141.0084,62.0224 C140.634,62.1548 140.0744,62.2653 139.3292,62.3572 C138.9063,62.409 138.6061,62.4677 138.4323,62.5329 C138.2569,62.5984 138.1205,62.6936 138.0267,62.8209 C137.9311,62.9465 137.8824,63.0854 137.8824,63.2393 C137.8824,63.4751 137.9878,63.671 138.1945,63.8283 C138.4011,63.984 138.7053,64.0628 139.105,64.0628 C139.501,64.0628 139.8542,63.9891 140.1623,63.8403 C140.4704,63.6911 140.6983,63.4871 140.8426,63.2291 C140.954,63.0301 141.0084,62.7356 141.0084,62.3472 L141.0084,62.0224 Z M150.509,59.4301 L150.509,64.6368 L149.4852,64.6368 L149.4852,62.6066 L148.8924,62.6066 C148.5296,62.6066 148.2606,62.6469 148.0831,62.7271 C147.906,62.8076 147.6483,63.0653 147.309,63.4987 L146.4121,64.6368 L145.1385,64.6368 L146.2463,63.2342 C146.5853,62.8059 146.9229,62.5647 147.2583,62.5097 C146.6712,62.4394 146.2364,62.2585 145.9515,61.964 C145.6689,61.6712 145.5266,61.3313 145.5266,60.9498 C145.5266,60.4979 145.712,60.1328 146.0844,59.8519 C146.4549,59.5707 146.9929,59.4301 147.6971,59.4301 L150.509,59.4301 Z M149.4852,60.1597 L148.0228,60.1597 C147.4105,60.1597 147.0145,60.2417 146.837,60.4058 C146.6616,60.5682 146.572,60.7607 146.572,60.9781 C146.572,61.2894 146.7027,61.517 146.964,61.6627 C147.2251,61.8084 147.6852,61.8818 148.3485,61.8818 L149.4852,61.8818 L149.4852,60.1597 Z M157.0262,62.0326 C157.0262,61.0685 157.3383,60.3539 157.9642,59.8902 C158.4846,59.5052 159.1204,59.3111 159.871,59.3111 C160.7055,59.3111 161.3884,59.5455 161.9168,60.0157 C162.4471,60.4843 162.7105,61.132 162.7105,61.9589 C162.7105,62.6301 162.5934,63.1574 162.3593,63.5406 C162.1254,63.9256 161.7844,64.2235 161.3374,64.4358 C160.8889,64.6484 160.4014,64.7539 159.871,64.7539 C159.0229,64.7539 158.3366,64.5214 157.8117,64.0526 C157.2872,63.5857 157.0262,62.913 157.0262,62.0326 L157.0262,62.0326 Z M158.0829,62.0326 C158.0829,62.7004 158.2527,63.1991 158.5917,63.5304 C158.9311,63.8635 159.3585,64.0293 159.871,64.0293 C160.3818,64.0293 160.807,63.8618 161.1466,63.5287 C161.4837,63.1957 161.6534,62.6868 161.6534,62.004 C161.6534,61.3597 161.4837,60.871 161.1426,60.5396 C160.8014,60.2082 160.3784,60.0427 159.871,60.0427 C159.3585,60.0427 158.9311,60.2082 158.5917,60.5379 C158.2527,60.8676 158.0829,61.3665 158.0829,62.0326 Z M166.0077,66.6318 L166.0077,59.4301 L166.9437,59.4301 L166.9437,60.1062 C167.1643,59.8417 167.4137,59.6424 167.6927,59.5103 C167.9696,59.3782 168.3069,59.3111 168.7029,59.3111 C169.2214,59.3111 169.6778,59.4267 170.0738,59.6543 C170.4715,59.8837 170.7697,60.2065 170.9709,60.6232 C171.1736,61.0402 171.2751,61.4969 171.2751,61.994 C171.2751,62.5264 171.1637,63.0066 170.9395,63.4335 C170.7172,63.8601 170.3935,64.1866 169.9686,64.4143 C169.5434,64.6402 169.0969,64.7539 168.6289,64.7539 C168.2854,64.7539 167.9792,64.6921 167.7066,64.5682 C167.4333,64.4443 167.2111,64.287 167.0356,64.0979 L167.0356,66.6318 L166.0077,66.6318 Z M166.9378,62.0626 C166.9378,62.7322 167.0963,63.2277 167.4117,63.5489 C167.7278,63.8686 168.1119,64.0293 168.5606,64.0293 C169.017,64.0293 169.4088,63.8635 169.7345,63.5304 C170.0599,63.1991 170.2237,62.6854 170.2237,61.9889 C170.2237,61.3245 170.0638,60.8293 169.7464,60.4979 C169.4283,60.168 169.0479,60.0024 168.6074,60.0024 C168.1686,60.0024 167.7805,60.1782 167.4432,60.5297 C167.1056,60.8812 166.9378,61.3931 166.9378,62.0626 L166.9378,62.0626 Z M174.6095,59.4301 L178.1001,59.4301 L178.1001,60.1597 L175.639,60.1597 L175.639,64.6368 L174.6095,64.6368 L174.6095,59.4301 Z M184.664,63.9942 C184.2819,64.272 183.9153,64.4678 183.5641,64.5832 C183.2112,64.6972 182.8331,64.7539 182.4294,64.7539 C181.7621,64.7539 181.2513,64.615 180.8928,64.3355 C180.5356,64.056 180.3564,63.698 180.3564,63.2643 C180.3564,63.0083 180.4228,62.7756 180.5591,62.5647 C180.6938,62.3538 180.8712,62.1848 181.0895,62.0575 C181.3097,61.9306 181.5555,61.8333 181.8307,61.7681 C182.0314,61.7231 182.3356,61.6777 182.7432,61.636 C183.5738,61.5504 184.186,61.4501 184.5781,61.3313 C184.5821,61.2108 184.5841,61.1337 184.5841,61.102 C184.5841,60.7423 184.4869,60.4877 184.2916,60.342 C184.0302,60.1413 183.6382,60.0427 183.1217,60.0427 C182.6379,60.0427 182.2813,60.1144 182.0491,60.2601 C181.8189,60.4058 181.6494,60.6635 181.538,61.0334 L180.534,60.9146 C180.6255,60.5464 180.7758,60.2468 180.9841,60.0209 C181.193,59.7932 181.4972,59.6175 181.8932,59.4953 C182.2889,59.3731 182.7473,59.3111 183.2697,59.3111 C183.7887,59.3111 184.2077,59.3646 184.5314,59.4684 C184.8554,59.5738 185.0932,59.7045 185.2472,59.8635 C185.3994,60.0226 185.5048,60.2215 185.5672,60.4642 C185.6001,60.615 185.6176,60.886 185.6176,61.2777 L185.6176,62.4544 C185.6176,63.2762 185.6392,63.7949 185.684,64.0109 C185.7271,64.2283 185.8147,64.4375 185.9433,64.6368 L184.869,64.6368 C184.7636,64.4542 184.6933,64.2402 184.6641,63.9942 L184.664,63.9942 Z M184.5781,62.0224 C184.2036,62.1548 183.6441,62.2653 182.8991,62.3572 C182.4759,62.409 182.1757,62.4677 182.002,62.5329 C181.8268,62.5984 181.6901,62.6936 181.5966,62.8209 C181.5011,62.9465 181.452,63.0854 181.452,63.2393 C181.452,63.4751 181.5575,63.671 181.7641,63.8283 C181.9711,63.984 182.2752,64.0628 182.6749,64.0628 C183.0709,64.0628 183.4238,63.9891 183.7319,63.8403 C184.0401,63.6911 184.268,63.4871 184.4125,63.2291 C184.5237,63.0301 184.5781,62.7356 184.5781,62.3472 L184.5781,62.0224 Z M189.3071,59.4301 L190.3367,59.4301 L190.3367,61.5975 L193.1877,61.5975 L193.1877,59.4301 L194.2153,59.4301 L194.2153,64.6368 L193.1877,64.6368 L193.1877,62.3271 L190.3367,62.3271 L190.3367,64.6368 L189.3071,64.6368 L189.3071,59.4301 Z M197.8539,59.4301 L198.8817,59.4301 L198.8817,63.4017 L201.7328,59.4301 L202.84,59.4301 L202.84,64.6368 L201.8124,64.6368 L201.8124,60.6904 L198.9616,64.6368 L197.8539,64.6368 L197.8539,59.4301 Z M207.8222,62.2837 L207.8222,61.5924 C208.2573,61.5894 208.5518,61.574 208.7117,61.5473 C208.8696,61.5221 209.0178,61.4436 209.1601,61.3129 C209.3004,61.1822 209.3705,61.0184 209.3705,60.8225 C209.3705,60.5832 209.2792,60.3925 209.0938,60.2502 C208.9084,60.1079 208.6709,60.0376 208.3761,60.0376 C207.7972,60.0376 207.3913,60.3304 207.1594,60.9146 L206.1823,60.7774 C206.4865,59.7997 207.2218,59.3111 208.388,59.3111 C209.0354,59.3111 209.5422,59.4636 209.911,59.768 C210.2775,60.071 210.4629,60.4341 210.4629,60.8559 C210.4629,61.2811 210.2211,61.619 209.7412,61.8719 C210.0474,62.0125 210.2756,62.1916 210.4275,62.4073 C210.5797,62.625 210.6557,62.8827 210.6557,63.1806 C210.6557,63.6478 210.459,64.0276 210.061,64.3187 C209.6653,64.6084 209.1114,64.7539 208.3996,64.7539 C207.0171,64.7539 206.2155,64.2266 205.9933,63.1707 L206.9604,62.995 C207.048,63.328 207.2258,63.5857 207.4945,63.7683 C207.7618,63.9522 208.0699,64.0426 208.4172,64.0426 C208.7621,64.0426 209.051,63.959 209.2831,63.7915 C209.513,63.6226 209.6281,63.4083 209.6281,63.1455 C209.6281,62.9431 209.5558,62.7673 209.4096,62.6165 C209.2656,62.466 209.1114,62.3722 208.9475,62.3356 C208.7837,62.2971 208.4875,62.2786 208.0563,62.2786 C208.0231,62.2786 207.9432,62.2806 207.8222,62.2836 L207.8222,62.2837 Z M217.8942,63.9942 C217.5121,64.272 217.1456,64.4678 216.7944,64.5832 C216.4415,64.6972 216.0633,64.7539 215.6597,64.7539 C214.9924,64.7539 214.4816,64.615 214.123,64.3355 C213.7659,64.056 213.5864,63.698 213.5864,63.2643 C213.5864,63.0083 213.653,62.7756 213.7894,62.5647 C213.924,62.3538 214.1015,62.1848 214.3197,62.0575 C214.54,61.9306 214.7858,61.8333 215.061,61.7681 C215.2617,61.7231 215.5659,61.6777 215.9735,61.636 C216.804,61.5504 217.4163,61.4501 217.8083,61.3313 C217.8123,61.2108 217.8143,61.1337 217.8143,61.102 C217.8143,60.7423 217.7171,60.4877 217.5218,60.342 C217.2604,60.1413 216.8684,60.0427 216.3519,60.0427 C215.868,60.0427 215.5114,60.1144 215.2793,60.2601 C215.0491,60.4058 214.8796,60.6635 214.7682,61.0334 L213.7642,60.9146 C213.8557,60.5464 214.006,60.2468 214.2143,60.0209 C214.4232,59.7932 214.7274,59.6175 215.1234,59.4953 C215.5191,59.3731 215.9774,59.3111 216.4999,59.3111 C217.0186,59.3111 217.4379,59.3646 217.7616,59.4684 C218.0856,59.5738 218.3234,59.7045 218.4773,59.8635 C218.6295,60.0226 218.735,60.2215 218.7974,60.4642 C218.8302,60.615 218.8478,60.886 218.8478,61.2777 L218.8478,62.4544 C218.8478,63.2762 218.8694,63.7949 218.9141,64.0109 C218.9572,64.2283 219.0445,64.4375 219.1735,64.6368 L218.0992,64.6368 C217.9937,64.4542 217.9234,64.2402 217.8942,63.9942 L217.8942,63.9942 Z M217.8083,62.0224 C217.4339,62.1548 216.8743,62.2653 216.1294,62.3572 C215.7062,62.409 215.406,62.4677 215.2322,62.5329 C215.057,62.5984 214.9204,62.6936 214.8266,62.8209 C214.7313,62.9465 214.6823,63.0854 214.6823,63.2393 C214.6823,63.4751 214.7877,63.671 214.9944,63.8283 C215.2013,63.984 215.5055,64.0628 215.9052,64.0628 C216.3012,64.0628 216.6541,63.9891 216.9622,63.8403 C217.2703,63.6911 217.4982,63.4871 217.6425,63.2291 C217.7539,63.0301 217.8083,62.7356 217.8083,62.3472 L217.8083,62.0224 Z M222.5487,59.4301 L223.5786,59.4301 L223.5786,63.9106 L226.4237,63.9106 L226.4237,59.4301 L227.4515,59.4301 L227.4515,63.9106 L228.1143,63.9106 L228.1143,66.1131 L227.2681,66.1131 L227.2681,64.6368 L222.5487,64.6368 L222.5487,59.4301 Z M231.3259,59.4301 L232.3538,59.4301 L232.3538,63.4017 L235.2046,59.4301 L236.3121,59.4301 L236.3121,64.6368 L235.2845,64.6368 L235.2845,60.6904 L232.4337,64.6368 L231.3259,64.6368 L231.3259,59.4301 Z M244.7284,59.4301 L244.7284,64.6368 L243.7045,64.6368 L243.7045,62.6066 L243.1118,62.6066 C242.749,62.6066 242.48,62.6469 242.3025,62.7271 C242.1254,62.8076 241.8677,63.0653 241.5284,63.4987 L240.6315,64.6368 L239.3579,64.6368 L240.4657,63.2342 C240.8047,62.8059 241.1423,62.5647 241.4776,62.5097 C240.8906,62.4394 240.4557,62.2585 240.1709,61.964 C239.8883,61.6712 239.746,61.3313 239.746,60.9498 C239.746,60.4979 239.9313,60.1328 240.3038,59.8519 C240.6743,59.5707 241.2123,59.4301 241.9164,59.4301 L244.7284,59.4301 Z M243.7045,60.1597 L242.2421,60.1597 C241.6299,60.1597 241.2339,60.2417 241.0564,60.4058 C240.8809,60.5682 240.7914,60.7607 240.7914,60.9781 C240.7914,61.2894 240.922,61.517 241.1834,61.6627 C241.4445,61.8084 241.9045,61.8818 242.5678,61.8818 L243.7045,61.8818 L243.7045,60.1597 Z"/>
    <polygon fill="#3B3B3B" points="195.054 30.394 195.054 25.72 204.238 25.72 204.238 30.394"/>
    <path fill="#B1C900" d="M205.8093 32.0636L209.5065 32.0636 209.5065 39.701 212.4755 39.701C212.6927 37.4477 213.4852 35.5564 214.8566 34.0359 216.2326 32.5151 218.2262 31.7526 220.8499 31.7526 223.3716 31.7526 225.3737 32.5662 226.8645 34.1978 228.3512 35.8291 229.0965 38.1592 229.0965 41.1877 229.0965 43.1683 228.7728 44.8552 228.1253 46.2609 227.4736 47.6624 226.5578 48.7486 225.3737 49.5154 224.1852 50.2864 222.7114 50.6696 220.948 50.6696 219.1503 50.6696 217.7233 50.3884 216.6629 49.8221 215.6021 49.2554 214.6735 48.3396 213.8812 47.0745 213.0847 45.8136 212.6161 44.3781 212.4755 42.7723L209.5065 42.7723 209.5065 50.3587 205.8093 50.3587 205.8093 32.0636zM216.1688 41.2345C216.1688 43.2664 216.5733 44.834 217.3783 45.9329 218.1876 47.0362 219.3206 47.5898 220.7861 47.5898 222.2939 47.5898 223.4229 47.0404 224.1724 45.9457 224.9264 44.8552 225.3054 43.2111 225.3054 41.0259 225.3054 38.926 224.8711 37.3924 223.9978 36.4213 223.129 35.4456 222.0172 34.96 220.6626 34.96 219.3379 34.96 218.2602 35.4499 217.4251 36.4383 216.586 37.4222 216.1688 39.0238 216.1688 41.2345L216.1688 41.2345zM232.3424 32.0636L244.738 32.0636 244.738 35.1346 236.0397 35.1346 236.0397 50.3587 232.3424 50.3587 232.3424 32.0636zM21.7906 27.3709C27.4401 22.4109 37.3703 18.6074 36.6569.3419 53.587 31.0406 53.394 55.9541 27.7483 64.6705 25.7623 52.2373 23.7762 39.8041 21.7906 27.3709L21.7906 27.3709z"/>
    <path fill="#59712E" d="M21.5007,64.5548 C-3.721,55.7235 -9.6215,19.935 21.1536,3.3516 C18.5695,24.7554 34.8517,25.5641 37.6982,38.0604 C40.3098,49.5249 34.7481,56.9118 27.7483,64.6705 C16.2171,58.5002 14.1734,47.702 11.5509,30.5402 C9.6613,47.6632 15.0606,56.9189 21.5007,64.5548 Z"/>
  </g>
</svg>
