<svg clip-rule="evenodd" fill-rule="evenodd" image-rendering="optimizeQuality" shape-rendering="geometricPrecision" text-rendering="geometricPrecision" viewBox="0 0 5000 5000" xmlns="http://www.w3.org/2000/svg"><defs><style>.str0{stroke:#434242;stroke-width:100}.fil2{fill:#434242}.fil0{fill:url(#id0)}.fil1{fill:url(#id1)}</style><linearGradient gradientUnits="userSpaceOnUse" id="id0" x1="2500" x2="2500" y1="900.02" y2="1950.02"><stop offset="0" stop-color="#FCFCFD"/><stop offset="1" stop-color="#fff"/></linearGradient><linearGradient gradientUnits="userSpaceOnUse" id="id1" x1="2499.86" x2="2499.86" y1="3835.02" y2="1715"><stop offset="0" stop-color="#008BFF"/><stop offset="1" stop-color="#0af"/></linearGradient></defs><g id="Layer_x0020_1"><path class="fil0 str0" d="M500 1950v-950c0-55 45-100 100-100h1400l400 300h2000c55 0 100 45 100 100v650H500z"/><path class="fil1 str0" d="M600 4100h3800c55 0 98-45 100-100l100-2450c2-55-45-100-100-100H3000l-400 300H500c-55 0-102 45-100 100l100 2150c3 55 45 100 100 100z"/><path class="fil2" d="M800 1100h1100c55 0 100 45 100 100s-45 100-100 100H800c-55 0-100-45-100-100s45-100 100-100z"/></g></svg>