<svg clip-rule="evenodd" fill-rule="evenodd" image-rendering="optimizeQuality" shape-rendering="geometricPrecision" text-rendering="geometricPrecision" viewBox="0 0 500 500" xmlns="http://www.w3.org/2000/svg"><defs><style>.str2{stroke:#434242;stroke-width:5}.str0,.str1{stroke:#434242;stroke-linejoin:round}.str0{stroke-linecap:round;stroke-width:10}.str1{stroke-width:15}.fil2{fill:#434242}.fil1{fill:#fefefe}.fil5{fill:#0075d8}.fil6{fill:#008bff}.fil7{fill:#289cff}.fil3{fill:#979798}.fil4{fill:#cdcdce}.fil0{fill:#fff}</style></defs><g id="Layer_x0020_1"><path class="fil0 str0" d="M190 30h140c11 0 20 9 20 20v400c0 11-9 20-20 20H50c-11 0-20-9-20-20V190L190 30z"/><path class="fil1 str0" d="M160 190H30L190 30v130c0 17-14 30-30 30z"/><path class="fil2 str1" d="M400 88l64 63c6 6 6 16 0 22L262 374l-127 43 42-128L379 88c6-6 15-6 21 0z"/><path class="fil3" transform="matrix(-2.12132 -2.12132 .06364 -.06364 424.937 211.559)" d="M0 0h39.999v219.999H0z"/><path class="fil4" d="M177 289l85 85-127 43z"/><path class="fil5" transform="rotate(45 -22.781 570.443)" d="M0 0h39.997v229.998H0z"/><path class="fil6" transform="rotate(45 -2.785 522.15)" d="M0 0h39.999v230.001H0z"/><path class="fil7" transform="rotate(45 17.207 473.858)" d="M0 0h40.001v230.001H0z"/><path class="fil2 str2" d="M135 417l66-23c-3-10-9-19-17-27-7-8-17-13-27-17l-22 67z"/></g></svg>