<svg xmlns="http://www.w3.org/2000/svg" width="409" height="409" viewBox="0 0 409 409" xmlns:xlink="http://www.w3.org/1999/xlink"><defs><path id="a" d="M0 408.94V.212h408.785V408.94z"/></defs><g fill="none" fill-rule="evenodd"><mask id="b" fill="#fff"><use xlink:href="#a"/></mask><path fill="#435181" d="M353.699.212H55.085C24.663.212 0 24.874 0 55.297v298.616c0 30.423 24.662 55.085 55.085 55.085H202.36l.251-146.078H164.66a8.954 8.954 0 0 1-8.954-8.92l-.182-47.087a8.955 8.955 0 0 1 8.955-8.989h37.882v-45.498c0-52.8 32.247-81.55 79.348-81.55h38.65a8.955 8.955 0 0 1 8.955 8.955v39.704a8.955 8.955 0 0 1-8.95 8.955l-23.719.011c-25.615 0-30.575 12.172-30.575 30.035v39.389h56.285c5.363 0 9.524 4.683 8.892 10.009l-5.581 47.087a8.955 8.955 0 0 1-8.892 7.901h-50.453L266.07 409h87.631c30.422 0 55.084-24.662 55.084-55.084V55.297C408.784 24.874 384.122.212 353.699.212" mask="url(#b)"/></g></svg>