<svg xmlns="http://www.w3.org/2000/svg" width="128" height="82" viewBox="0 0 128 82">
  <path fill="#F93F2D" fill-rule="evenodd" d="M40.654,32.935 L40.654,49.065 C40.654,49.065 56.273,49.044 62.633,49.044 C59.189,59.5 53.834,65.194 40.654,65.194 C27.316,65.194 16.906,54.362 16.906,41 C16.906,27.638 27.316,16.806 40.654,16.806 C47.706,16.806 52.261,19.289 56.438,22.75 C59.782,19.4 59.503,18.922 68.011,10.873 C60.789,4.287 51.189,0.273 40.654,0.273 C18.201,0.273 0,18.507 0,41 C0,63.493 18.201,81.727 40.654,81.727 C74.215,81.727 82.417,52.452 79.698,32.935 L40.654,32.935 Z M113.912,33.742 L113.912,19.628 L103.849,19.628 L103.849,33.741 L89.358,33.741 L89.358,43.822 L103.849,43.822 L103.849,58.339 L113.912,58.339 L113.912,43.823 L128,43.823 L128,33.742 L113.912,33.742 Z"/>
</svg>
