<svg xmlns="http://www.w3.org/2000/svg" width="128" height="82" viewBox="0 0 128 82"><path fill="#F93F2D" fill-rule="evenodd" d="M40.654 32.935v16.13s15.619-.021 21.979-.021c-3.444 10.456-8.799 16.15-21.979 16.15-13.338 0-23.748-10.832-23.748-24.194 0-13.362 10.41-24.194 23.748-24.194 7.052 0 11.607 2.483 15.784 5.944 3.344-3.35 3.065-3.828 11.573-11.877C60.789 4.287 51.189.273 40.654.273 18.201.273 0 18.507 0 41c0 22.493 18.201 40.727 40.654 40.727 33.561 0 41.763-29.275 39.044-48.792H40.654zm73.258.807V19.628h-10.063v14.113H89.358v10.081h14.491v14.517h10.063V43.823H128V33.742h-14.088z"/></svg>