<svg xmlns="http://www.w3.org/2000/svg" width="260" height="259" viewBox="0 0 260 259"><defs><radialGradient id="a" cx="29.008%" cy="99.791%" r="100.892%" fx="29.008%" fy="99.791%"><stop stop-color="#FFD776" offset="0%"/><stop stop-color="#F3A554" offset="24.63%"/><stop stop-color="#F15C3C" offset="37.93%"/><stop stop-color="#D94867" offset="53.94%"/><stop stop-color="#C32F87" offset="69.95%"/><stop stop-color="#7D63A7" offset="91.22%"/><stop stop-color="#5C6CB3" offset="98.52%"/></radialGradient><radialGradient id="b" cx="29.063%" cy="99.751%" r="100.814%" fx="29.063%" fy="99.751%"><stop stop-color="#FFD776" offset="0%"/><stop stop-color="#F3A554" offset="24.63%"/><stop stop-color="#F15C3C" offset="37.93%"/><stop stop-color="#D94867" offset="60.7%"/><stop stop-color="#C32F87" offset="83.46%"/><stop stop-color="#7D63A7" offset="95.77%"/><stop stop-color="#5C6CB3" offset="100%"/></radialGradient><radialGradient id="c" cx="29.104%" cy="99.775%" r="101.074%" fx="29.104%" fy="99.775%"><stop stop-color="#5F6DB3" offset="0%"/><stop stop-color="#5C6CB3" offset="100%"/></radialGradient></defs><g fill="none"><path fill="url(#a)" d="M252.7 44.7c-3.3-8.5-7.7-15.7-14.9-22.9-7.2-7.2-14.4-11.6-22.9-14.9-8.2-3.2-17.7-5.4-31.4-6-13.8-.6-18.2-.8-53.4-.8S90.5.2 76.7.9c-13.8.6-23.2 2.8-31.4 6-8.5 3.3-15.7 7.7-22.9 14.9C15.2 29 10.8 36.2 7.5 44.7c-3.2 8.2-5.4 17.7-6 31.4C.9 89.9.7 94.3.7 129.5s.1 39.6.8 53.4c.6 13.8 2.8 23.2 6 31.4 3.3 8.5 7.7 15.7 14.9 22.9 7.2 7.2 14.4 11.6 22.9 14.9 8.2 3.2 17.7 5.4 31.4 6 13.8.6 18.2.8 53.4.8s39.6-.1 53.4-.8c13.8-.6 23.2-2.8 31.4-6 8.5-3.3 15.7-7.7 22.9-14.9 7.2-7.2 11.6-14.4 14.9-22.9 3.2-8.2 5.4-17.7 6-31.4.6-13.8.8-18.2.8-53.4s-.1-39.6-.8-53.4c-.6-13.8-2.8-23.2-6-31.4zm-17.3 137.1c-.6 12.6-2.7 19.5-4.5 24-2.3 6-5.2 10.4-9.7 14.9-4.5 4.5-8.8 7.3-14.9 9.7-4.6 1.8-11.4 3.9-24 4.5-13.7.6-17.7.8-52.3.8-34.6 0-38.7-.1-52.3-.8-12.6-.6-19.5-2.7-24-4.5-6-2.3-10.4-5.2-14.9-9.7-4.5-4.5-7.3-8.8-9.7-14.9-1.8-4.6-3.9-11.4-4.5-24-.6-13.7-.8-17.8-.8-52.3s.1-38.7.8-52.3c.6-12.6 2.7-19.5 4.5-24 2.3-6 5.2-10.4 9.7-14.9 4.5-4.5 8.8-7.3 14.9-9.7 4.6-1.8 11.4-3.9 24-4.5 13.7-.6 17.8-.8 52.3-.8s38.7.1 52.3.8c12.6.6 19.5 2.7 24 4.5 6 2.3 10.4 5.2 14.9 9.7 4.5 4.5 7.3 8.8 9.7 14.9 1.8 4.6 3.9 11.4 4.5 24 .6 13.7.8 17.8.8 52.3s-.2 38.7-.8 52.3z"/><path fill="url(#b)" d="M130 63c-36.7 0-66.5 29.8-66.5 66.5S93.3 196 130 196s66.5-29.8 66.5-66.5S166.7 63 130 63zm0 109.7c-23.8 0-43.2-19.3-43.2-43.2 0-23.8 19.3-43.2 43.2-43.2 23.9 0 43.2 19.3 43.2 43.2 0 23.8-19.4 43.2-43.2 43.2z"/><circle cx="199.1" cy="60.4" r="15.5" fill="url(#c)"/></g></svg>