<svg xmlns="http://www.w3.org/2000/svg" width="512" height="293" viewBox="0 0 512 293"><path fill="#366BAA" d="M280.796 292.262c12.967 0 18.297-8.643 18.123-19.47-.656-40.843 15.234-62.83 43.938-34.188 31.75 31.719 38.313 53.658 76.875 53.658h68.248c53.703 0 5.844-53.814-31.984-88.875-35.97-33.346-37.672-34.143-6.688-74.26 38.453-49.812 88.734-114 44.252-114h-84.924c-16.484 0-17.688 9.609-23.529 23.439-21.219 49.953-61.56 114.735-76.89 104.843-16.048-10.344-8.706-45.437-7.47-106.233.33-16.063.234-27.11-24.328-32.798-67.124-15.563-125.296 15.032-101.532 19.438 33.5 6.25 30.283 72.845 22.484 104.109-13.608 54.445-64.764-43.093-86.09-91.687-5.143-11.688-6.705-21.11-25.08-21.11H16.764c-13.376 0-19.937 6.126-15.264 18.548C6.17 46.08 59.905 166.105 123.437 234.573c58.795 63.375 116.918 57.689 157.36 57.689z"/></svg>