<svg xmlns="http://www.w3.org/2000/svg" width="245" height="67" viewBox="0 0 245 67"><g fill="none" fill-rule="evenodd"><path fill="#58712E" d="M60.727 39.817h5.742c-.149-1.363-.604-2.496-1.367-3.4-.763-.902-1.793-1.354-3.101-1.354-.988 0-1.823.273-2.496.822-.673.55-1.15 1.278-1.423 2.186l-3.655-.835c.371-1.623 1.197-2.922 2.475-3.902 1.278-.976 2.94-1.465 4.988-1.465 2.662 0 4.741.881 6.236 2.65 1.5 1.767 2.25 4.071 2.25 6.908 0 1.93-.35 3.59-1.044 4.98-.695 1.388-1.649 2.466-2.863 3.233-1.214.762-2.679 1.146-4.391 1.146-4.17 0-6.74-1.96-7.702-5.879l3.706-1.146c.192 1.321.665 2.3 1.419 2.94.75.634 1.652.954 2.7.954a3.817 3.817 0 0 0 2.777-1.138c.767-.754 1.266-1.968 1.491-3.629h-5.742v-3.071zm12.668-7.638h3.694v7.787c.826-.08 1.384-.294 1.674-.635.29-.34.74-1.29 1.346-2.845.766-1.98 1.537-3.212 2.308-3.693.767-.486 2.002-.724 3.706-.724.085 0 .264-.004.537-.013v2.73l-.524-.013c-.754 0-1.308.094-1.657.282a2.1 2.1 0 0 0-.848.856c-.217.383-.536 1.167-.962 2.36a8.678 8.678 0 0 1-.729 1.584c-.264.422-.728.823-1.393 1.197a3.823 3.823 0 0 1 2.04 1.41c.537.707 1.125 1.708 1.764 2.995l2.496 5.018h-4.34l-2.186-4.729a8.087 8.087 0 0 0-.212-.387 34.11 34.11 0 0 1-.46-.86c-.473-.9-.865-1.462-1.168-1.688-.302-.225-.766-.34-1.392-.349v8.013h-3.694V32.179zm14.79 9.261c0-1.866.277-3.429.835-4.694a8.699 8.699 0 0 1 1.704-2.51c.72-.736 1.508-1.285 2.364-1.643 1.141-.486 2.453-.724 3.944-.724 2.696 0 4.852.834 6.47 2.508 1.619 1.67 2.429 3.996 2.429 6.973 0 2.957-.806 5.265-2.412 6.935-1.605 1.666-3.752 2.5-6.436 2.5-2.722 0-4.886-.83-6.492-2.487-1.605-1.661-2.406-3.949-2.406-6.858zm3.804-.124c0 2.07.481 3.642 1.435 4.712.958 1.069 2.173 1.601 3.646 1.601 1.47 0 2.68-.528 3.625-1.593.942-1.06 1.414-2.65 1.414-4.77 0-2.096-.46-3.66-1.375-4.695-.92-1.03-2.143-1.546-3.664-1.546-1.524 0-2.751.524-3.684 1.568-.929 1.043-1.397 2.615-1.397 4.723zm28.53 2.433l3.579 1.133c-.55 1.997-1.462 3.48-2.74 4.451-1.273.967-2.896 1.453-4.86 1.453-2.428 0-4.425-.831-5.988-2.488-1.564-1.661-2.347-3.932-2.347-6.807 0-3.045.788-5.41 2.36-7.096 1.571-1.683 3.637-2.526 6.201-2.526 2.237 0 4.056.66 5.453 1.985.835.78 1.456 1.904 1.874 3.369l-3.66.873c-.212-.95-.664-1.7-1.354-2.249-.686-.55-1.52-.822-2.5-.822-1.355 0-2.458.486-3.301 1.46-.844.972-1.265 2.548-1.265 4.73 0 2.312.413 3.96 1.248 4.94.83.984 1.912 1.474 3.241 1.474.984 0 1.828-.31 2.535-.937.707-.622 1.214-1.606 1.525-2.943zm10.232 6.726V35.276h-5.427V32.18h14.539v3.097h-5.415v15.199h-3.697zm11.497 0V32.179h5.925c2.245 0 3.71.094 4.392.277 1.048.273 1.93.87 2.637 1.79.707.92 1.06 2.108 1.06 3.56 0 1.125-.204 2.07-.613 2.833-.41.767-.925 1.367-1.555 1.806-.626.435-1.265.724-1.912.865-.882.175-2.16.264-3.834.264h-2.407v6.9h-3.693zm3.693-15.199v5.189h2.02c1.456 0 2.431-.094 2.921-.286.49-.191.873-.49 1.155-.899.277-.409.417-.882.417-1.422 0-.665-.196-1.214-.588-1.649a2.548 2.548 0 0 0-1.482-.81c-.443-.084-1.33-.123-2.658-.123h-1.785zm12.268 6.164c0-1.866.277-3.429.835-4.694a8.697 8.697 0 0 1 1.703-2.51c.72-.736 1.508-1.285 2.365-1.643 1.141-.486 2.453-.724 3.944-.724 2.696 0 4.852.834 6.47 2.508 1.619 1.67 2.428 3.996 2.428 6.973 0 2.957-.805 5.265-2.41 6.935-1.607 1.666-3.753 2.5-6.437 2.5-2.722 0-4.886-.83-6.492-2.487-1.605-1.661-2.406-3.949-2.406-6.858zm3.804-.124c0 2.07.48 3.642 1.435 4.712.958 1.069 2.172 1.601 3.646 1.601 1.47 0 2.68-.528 3.625-1.593.942-1.06 1.414-2.65 1.414-4.77 0-2.096-.46-3.66-1.375-4.695-.92-1.03-2.143-1.546-3.664-1.546-1.524 0-2.751.524-3.684 1.568-.929 1.043-1.397 2.615-1.397 4.723zm16.872-9.137h3.459v12.179l7.412-12.178h3.68v18.295h-3.455V38.53l-7.403 11.944h-3.693V32.179z"/><path fill="#3B3B3B" d="M58.7 62.729l1.01.114c-.109.597-.391 1.066-.848 1.404-.454.338-1.014.507-1.677.507-.829 0-1.497-.233-2-.698-.506-.465-.76-1.133-.76-2.003 0-.563.11-1.055.327-1.477.218-.421.547-.738.992-.949.443-.21.926-.316 1.447-.316.66 0 1.2.144 1.617.43.419.286.688.691.807 1.219l-1 .132c-.096-.35-.264-.612-.506-.79a1.453 1.453 0 0 0-.877-.264c-.519 0-.94.159-1.264.478-.323.318-.485.822-.485 1.512 0 .7.156 1.208.47 1.526.312.316.72.475 1.222.475.404 0 .74-.107 1.01-.32.272-.212.443-.538.515-.98zm3.426-3.299h4.932v.73h-1.954v4.477H64.08V60.16h-1.954v-.73zm8.005 7.202V59.43h.936v.676c.22-.264.47-.464.749-.596.277-.132.614-.199 1.01-.199.519 0 .975.116 1.371.343.398.23.696.552.897.97.203.416.304.873.304 1.37 0 .532-.11 1.013-.335 1.44a2.29 2.29 0 0 1-.971.98c-.425.226-.872.34-1.34.34-.343 0-.65-.062-.922-.186a2.056 2.056 0 0 1-.67-.47v2.534h-1.03zm.93-4.57c0 .67.158 1.166.474 1.487.316.32.7.48 1.149.48.456 0 .848-.165 1.174-.499.325-.33.49-.845.49-1.541 0-.664-.16-1.16-.478-1.491a1.529 1.529 0 0 0-1.14-.496c-.438 0-.826.176-1.164.528-.337.351-.505.863-.505 1.533zm7.284-.03c0-.963.312-1.678.938-2.142.52-.385 1.156-.579 1.907-.579.834 0 1.517.234 2.046.705.53.468.793 1.116.793 1.943 0 .671-.117 1.198-.351 1.582a2.325 2.325 0 0 1-1.022.895 3.374 3.374 0 0 1-1.466.318c-.848 0-1.535-.233-2.06-.701-.524-.467-.785-1.14-.785-2.02zm1.057 0c0 .668.17 1.167.508 1.498.34.334.767.5 1.28.5.51 0 .936-.168 1.275-.501.337-.333.507-.842.507-1.525 0-.644-.17-1.133-.51-1.464-.342-.332-.765-.497-1.272-.497-.513 0-.94.165-1.28.495-.338.33-.508.829-.508 1.495zm7.924-2.602h1.028v3.972l2.851-3.972h1.108v5.207h-1.028V60.69l-2.85 3.947h-1.109V59.43zm8.072 0h4.931v.73h-1.954v4.477h-1.023V60.16h-1.954v-.73zm12.025 3.53l1.063.112a2.229 2.229 0 0 1-.93 1.242c-.454.293-1.034.44-1.738.44-.887 0-1.591-.234-2.11-.703-.52-.469-.78-1.126-.78-1.973 0-.877.264-1.557.788-2.04.527-.484 1.207-.727 2.046-.727.81 0 1.474.238 1.987.712.515.473.772 1.141.772 2 0 .053-.002.132-.006.235h-4.524c.037.573.226 1.011.565 1.314.34.305.761.457 1.268.457.376 0 .698-.085.965-.256.267-.169.478-.44.634-.813zm-3.375-1.428h3.387c-.045-.437-.176-.766-.388-.984-.328-.34-.753-.51-1.273-.51-.472 0-.87.135-1.192.406-.322.271-.5.634-.534 1.088zm7.934-2.102h4.778v5.207h-1.024V60.16h-2.724v2.594c0 .604-.023 1.004-.068 1.197-.047.192-.172.361-.378.505-.205.144-.504.216-.892.216a9.78 9.78 0 0 1-.829-.04v-.735h.453c.213 0 .364-.02.456-.057a.313.313 0 0 0 .184-.179c.03-.082.044-.348.044-.8v-3.43zm8.399 0h1.028v2.033h1.303c.85 0 1.503.143 1.96.426.461.282.69.672.69 1.17 0 .433-.192.806-.574 1.114-.382.31-.994.464-1.837.464h-2.57V59.43zm1.028 4.48h1.08c.651 0 1.116-.068 1.394-.205.277-.138.416-.352.416-.641 0-.226-.102-.427-.308-.605-.205-.175-.662-.264-1.365-.264h-1.217v1.716zm7.18-4.48h1.03v2.167h2.85V59.43h1.028v5.207h-1.028v-2.31h-2.85v2.31h-1.03V59.43zm12.505 4.564a4.048 4.048 0 0 1-1.1.59c-.353.113-.73.17-1.135.17-.667 0-1.178-.139-1.536-.419-.357-.279-.537-.637-.537-1.07 0-.257.067-.49.203-.7.135-.211.312-.38.53-.508a2.74 2.74 0 0 1 .742-.289c.2-.045.505-.09.912-.132.831-.086 1.443-.186 1.835-.305l.006-.229c0-.36-.097-.614-.292-.76-.262-.2-.654-.3-1.17-.3-.484 0-.84.072-1.073.218-.23.146-.4.404-.51.773l-1.005-.118c.091-.369.242-.668.45-.894.209-.228.513-.404.91-.526a4.672 4.672 0 0 1 1.376-.184c.519 0 .938.054 1.261.157.324.106.562.236.716.395.152.16.258.358.32.601.033.151.05.422.05.814v1.176c0 .822.022 1.34.067 1.557.043.217.13.427.26.626h-1.075a1.658 1.658 0 0 1-.205-.643zm-.086-1.972c-.374.133-.934.243-1.679.335-.423.052-.723.11-.897.176a.861.861 0 0 0-.405.288.674.674 0 0 0-.145.418c0 .236.106.432.313.59.206.155.51.234.91.234.396 0 .75-.074 1.057-.223.308-.149.536-.353.68-.61.112-.2.166-.494.166-.883v-.325zm9.501-2.592v5.207h-1.024v-2.03h-.593c-.362 0-.631.04-.809.12-.177.08-.435.338-.774.772l-.897 1.138h-1.274l1.108-1.403c.34-.428.677-.67 1.012-.724-.587-.07-1.022-.252-1.306-.546a1.421 1.421 0 0 1-.425-1.014c0-.452.185-.817.557-1.098.37-.281.909-.422 1.613-.422h2.812zm-1.024.73h-1.462c-.612 0-1.008.082-1.186.246a.761.761 0 0 0-.265.572c0 .311.13.539.392.685.261.145.721.219 1.385.219h1.136V60.16zm7.541 1.873c0-.965.312-1.68.938-2.143.52-.385 1.156-.579 1.907-.579.834 0 1.517.234 2.046.705.53.468.793 1.116.793 1.943 0 .671-.117 1.198-.35 1.582a2.325 2.325 0 0 1-1.023.895 3.375 3.375 0 0 1-1.466.318c-.848 0-1.534-.233-2.06-.701-.524-.467-.785-1.14-.785-2.02zm1.057 0c0 .667.17 1.166.509 1.497.34.334.766.5 1.279.5.51 0 .936-.168 1.276-.501.337-.333.506-.842.506-1.525 0-.644-.17-1.133-.51-1.464-.342-.332-.765-.497-1.272-.497-.513 0-.94.165-1.28.495-.338.33-.508.829-.508 1.495zm7.925 4.599V59.43h.936v.676c.22-.264.47-.464.749-.596.277-.132.614-.199 1.01-.199.518 0 .975.116 1.37.343.398.23.697.552.898.97.203.416.304.873.304 1.37a3.05 3.05 0 0 1-.335 1.44 2.29 2.29 0 0 1-.971.98 2.82 2.82 0 0 1-1.34.34 2.2 2.2 0 0 1-.922-.186 2.06 2.06 0 0 1-.671-.47v2.534h-1.028zm.93-4.57c0 .67.158 1.166.474 1.487.316.32.7.48 1.149.48.456 0 .848-.165 1.173-.499.326-.33.49-.845.49-1.541 0-.664-.16-1.16-.478-1.491a1.53 1.53 0 0 0-1.139-.496c-.438 0-.827.176-1.164.528-.337.351-.505.863-.505 1.533zm7.672-2.632h3.49v.73h-2.461v4.477h-1.03V59.43zm10.054 4.564a4.044 4.044 0 0 1-1.1.59 3.67 3.67 0 0 1-1.135.17c-.667 0-1.178-.139-1.536-.419-.357-.279-.537-.637-.537-1.07 0-.257.067-.49.203-.7.135-.211.312-.38.53-.508.22-.126.466-.224.742-.289.2-.045.505-.09.912-.132.83-.086 1.443-.186 1.835-.305l.006-.229c0-.36-.097-.614-.292-.76-.262-.2-.654-.3-1.17-.3-.484 0-.84.072-1.073.218-.23.146-.4.404-.511.773l-1.004-.118c.091-.369.242-.668.45-.894.209-.228.513-.404.91-.526a4.671 4.671 0 0 1 1.376-.184c.519 0 .938.054 1.261.157.324.106.562.236.716.395.152.16.258.358.32.601.033.151.05.422.05.814v1.176c0 .822.022 1.34.067 1.557.043.217.13.427.26.626h-1.075a1.665 1.665 0 0 1-.205-.643zm-.086-1.972c-.374.133-.934.243-1.679.335-.423.052-.723.11-.897.176a.86.86 0 0 0-.405.288.675.675 0 0 0-.145.418c0 .236.106.432.312.59.207.155.511.234.91.234.397 0 .75-.074 1.058-.223.308-.149.536-.353.68-.61.112-.2.166-.494.166-.883v-.325zm4.73-2.592h1.029v2.167h2.85V59.43h1.028v5.207h-1.027v-2.31h-2.851v2.31h-1.03V59.43zm8.546 0h1.028v3.972l2.85-3.972h1.108v5.207h-1.028V60.69l-2.85 3.947h-1.108V59.43zm9.968 2.854v-.692c.435-.003.73-.018.89-.045a.864.864 0 0 0 .448-.234c.14-.13.21-.295.21-.49 0-.24-.09-.43-.276-.573-.186-.142-.423-.212-.718-.212-.579 0-.985.292-1.217.877l-.977-.138c.305-.977 1.04-1.466 2.206-1.466.647 0 1.154.153 1.523.457.367.303.552.666.552 1.088 0 .425-.242.763-.722 1.016.306.14.535.32.686.535.153.218.229.476.229.774 0 .467-.197.847-.595 1.138-.396.29-.95.435-1.661.435-1.383 0-2.185-.527-2.407-1.583l.967-.176a1.3 1.3 0 0 0 .534.773c.268.184.576.275.923.275.345 0 .634-.084.866-.252.23-.168.345-.383.345-.645a.734.734 0 0 0-.218-.53.923.923 0 0 0-.463-.28c-.163-.039-.46-.057-.89-.057l-.235.005zm10.072 1.71a4.044 4.044 0 0 1-1.1.59 3.67 3.67 0 0 1-1.134.17c-.668 0-1.178-.139-1.537-.419-.357-.279-.537-.637-.537-1.07 0-.257.067-.49.203-.7.135-.211.313-.38.53-.508.221-.126.467-.224.742-.289.2-.045.505-.09.912-.132.831-.086 1.443-.186 1.835-.305l.006-.229c0-.36-.097-.614-.292-.76-.262-.2-.654-.3-1.17-.3-.484 0-.84.072-1.073.218-.23.146-.4.404-.51.773l-1.005-.118c.092-.369.242-.668.45-.894.21-.228.513-.404.91-.526a4.67 4.67 0 0 1 1.376-.184c.519 0 .938.054 1.262.157.324.106.561.236.715.395.153.16.258.358.32.601.033.151.05.422.05.814v1.176c0 .822.022 1.34.067 1.557.043.217.13.427.26.626h-1.075a1.664 1.664 0 0 1-.205-.643zm-.086-1.972c-.374.133-.934.243-1.679.335-.423.052-.723.11-.897.176a.862.862 0 0 0-.405.288.676.676 0 0 0-.145.418c0 .236.106.432.312.59.207.155.512.234.911.234.396 0 .75-.074 1.057-.223.308-.149.536-.353.68-.61.112-.2.166-.494.166-.883v-.325zm4.74-2.592h1.03v4.48h2.846v-4.48h1.028v4.48h.662v2.203h-.846v-1.476h-4.72V59.43zm8.778 0h1.028v3.972l2.85-3.972h1.108v5.207h-1.028V60.69l-2.85 3.947h-1.108V59.43zm13.402 0v5.207h-1.024v-2.03h-.592c-.363 0-.632.04-.81.12-.177.08-.434.338-.774.772l-.897 1.138h-1.273l1.108-1.403c.339-.428.676-.67 1.012-.724-.587-.07-1.022-.252-1.307-.546a1.421 1.421 0 0 1-.425-1.014c0-.452.185-.817.558-1.098.37-.281.908-.422 1.612-.422h2.812zm-1.024.73h-1.462c-.612 0-1.008.082-1.186.246a.76.76 0 0 0-.265.572c0 .311.131.539.392.685.262.145.722.219 1.385.219h1.136V60.16zm-48.65-29.766V25.72h9.184v4.674z"/><path fill="#B1C900" d="M205.81 32.064h3.696V39.7h2.97c.217-2.253 1.01-4.145 2.38-5.665 1.377-1.52 3.37-2.283 5.994-2.283 2.522 0 4.524.813 6.014 2.445 1.487 1.631 2.232 3.961 2.232 6.99 0 1.98-.323 3.667-.97 5.073-.652 1.401-1.568 2.488-2.752 3.254-1.189.771-2.663 1.155-4.426 1.155-1.798 0-3.225-.282-4.285-.848-1.06-.567-1.99-1.482-2.782-2.748-.796-1.26-1.265-2.696-1.405-4.302h-2.97v7.587h-3.697V32.064zm10.359 9.17c0 2.032.404 3.6 1.21 4.699.809 1.103 1.942 1.657 3.407 1.657 1.508 0 2.637-.55 3.386-1.644.754-1.09 1.133-2.735 1.133-4.92 0-2.1-.434-3.634-1.307-4.605-.869-.975-1.98-1.461-3.335-1.461-1.325 0-2.403.49-3.238 1.478-.839.984-1.256 2.586-1.256 4.796zm16.173-9.17h12.396v3.07h-8.698V50.36h-3.698V32.064zM21.791 27.37c5.65-4.96 15.58-8.764 14.866-27.03 16.93 30.7 16.737 55.613-8.909 64.33l-5.957-37.3z"/><path fill="#59712E" d="M21.5 64.555c-25.221-8.832-31.122-44.62-.346-61.203C18.57 24.755 34.852 25.564 37.698 38.06c2.612 11.465-2.95 18.852-9.95 26.61-11.53-6.17-13.575-16.968-16.197-34.13-1.89 17.123 3.51 26.379 9.95 34.015z"/></g></svg>