<svg xmlns="http://www.w3.org/2000/svg" width="512" height="512" viewBox="0 0 512 512" xmlns:xlink="http://www.w3.org/1999/xlink"><defs><path id="a" d="M.06 512V.002h511.939V512z"/></defs><g fill="none" fill-rule="evenodd"><path d="M363.788 53.896c-34.176 0-61.979 27.803-61.979 61.979a8.084 8.084 0 1 0 16.169 0c0-25.261 20.55-45.811 45.81-45.811s45.81 20.55 45.81 45.811c0 25.26-20.55 45.81-45.81 45.81a8.084 8.084 0 0 0-8.084 8.084v35.93a8.084 8.084 0 0 0 8.084 8.084 8.084 8.084 0 0 0 8.084-8.084v-28.37c30.371-3.974 53.895-30.019 53.895-61.454 0-34.176-27.803-61.979-61.979-61.979m0 180.547c5.953 0 10.779 4.826 10.779 10.779s-4.826 10.779-10.779 10.779-10.779-4.826-10.779-10.779 4.826-10.779 10.779-10.779m-258.694 53.895c11.906 0 21.558 9.651 21.558 21.557 0 11.906-9.652 21.558-21.558 21.558s-21.558-9.652-21.558-21.558 9.652-21.557 21.558-21.557" fill="#dfdacc"/><mask id="b" fill="#fff"><use xlink:href="#a"/></mask><path fill="#dfdacc" d="M169.767 288.338c11.906 0 21.558 9.651 21.558 21.557 0 11.906-9.652 21.558-21.558 21.558s-21.558-9.652-21.558-21.558 9.652-21.557 21.558-21.557" mask="url(#b)"/><path fill="#dfdacc" d="M454.388 259.113c-27.356 27.534-63.802 42.698-102.627 42.698H230.759a388.235 388.235 0 0 0 9.893-9.929c11.245-11.724 11.992-30.021 1.737-42.561-16.858-20.615-27.562-45.638-30.994-71.906-.523-4.01-3.958-6.997-8.002-6.997-4.871 0-8.657 4.281-8.025 9.111 3.825 29.233 15.741 57.083 34.506 80.028 5.084 6.218 4.702 15.304-.889 21.133-6.655 6.937-13.083 13.02-17.389 16.973-3.574 3.283-4.982 8.438-3.219 12.959 1.746 4.47 5.971 7.359 10.77 7.359H351.76c20.039 0 39.507-3.64 57.661-10.597-1.794 42.346-17.319 83.309-44.176 116.152-12.995 15.891-12.046 39.077 2.207 53.936 6.67 6.953 13.165 13.285 18.536 18.361H214.577c-53.465 0-103.655-20.883-141.325-58.8-37.151-37.394-57.422-86.841-57.079-139.231.686-104.725 84.483-190.778 188.299-195.205a156.164 156.164 0 0 0-9.062 35.507c-.642 4.826 3.154 9.104 8.023 9.104h.009c4.032 0 7.465-2.97 7.998-6.966 4.115-30.857 18.354-59.527 41.127-82.187C279.73 31.027 315.38 16.17 353.024 16.17l.716.002c77.838.389 141.578 64.028 142.087 141.862.25 38.033-14.467 73.93-41.439 101.079zm10.961-212.627C435.542 16.723 395.934.215 353.82.003c-42.212-.179-82.251 16.336-112.657 46.591-11.931 11.872-21.748 25.238-29.285 39.643l-.038-.002h-.041c-56.389.282-109.425 22.385-149.336 62.24C22.556 188.324.373 241.318.005 297.695c-.371 56.728 21.568 110.259 61.777 150.731C102.509 489.423 156.773 512 214.577 512h179.976c5.32 0 10.002-3.203 11.93-8.161 1.927-4.954.643-10.476-3.275-14.067-5.87-5.382-14.813-13.826-24.088-23.494-8.598-8.964-9.183-22.94-1.358-32.508 30.764-37.62 47.784-85.081 47.995-133.738 14.625-7.595 28.146-17.492 40.101-29.525 30.029-30.226 46.415-70.209 46.138-112.579-.276-42.103-16.843-81.681-46.647-111.442z" mask="url(#b)"/></g></svg>