<?xml version="1.0" standalone="no"?>
<!DOCTYPE svg PUBLIC "-//W3C//DTD SVG 20010904//EN"
 "http://www.w3.org/TR/2001/REC-SVG-20010904/DTD/svg10.dtd">
<svg version="1.0" xmlns="http://www.w3.org/2000/svg"
 width="512.000000pt" height="512.000000pt" viewBox="0 0 512.000000 512.000000"
 preserveAspectRatio="xMidYMid meet">
<metadata>
Created by potrace 1.11, written by Peter Selinger 2001-2013
</metadata>
<g transform="translate(0.000000,512.000000) scale(0.100000,-0.100000)"
fill="#000000" stroke="none">
<path d="M3497 4913 c4 -9 2 -14 -3 -10 -7 4 -9 -6 -6 -25 4 -24 2 -29 -9 -23
-12 8 -12 6 0 -8 15 -18 26 -23 16 -7 -3 6 -2 10 3 10 6 0 9 -11 8 -24 -1 -16
-5 -21 -12 -15 -7 5 -11 3 -11 -6 0 -8 4 -15 9 -15 4 0 8 -5 8 -11 0 -5 -4 -8
-9 -5 -8 5 -5 -87 4 -111 2 -7 -1 -13 -7 -13 -9 0 -9 -3 -1 -11 7 -7 8 -21 3
-40 -5 -16 -6 -29 -3 -29 3 0 1 -6 -6 -13 -8 -10 -7 -17 2 -26 9 -11 9 -14 -1
-18 -10 -4 -10 -8 0 -21 11 -14 10 -15 -7 -9 -20 7 -20 7 -1 -8 11 -8 14 -15
7 -15 -8 0 -11 -11 -7 -34 4 -23 1 -38 -9 -46 -18 -15 -20 -34 -2 -24 8 6 8 3
-1 -9 -8 -9 -12 -24 -10 -34 2 -10 -3 -24 -12 -31 -13 -12 -13 -13 5 -8 18 5
18 4 -2 -10 -18 -13 -21 -22 -16 -46 5 -25 3 -29 -8 -23 -12 7 -12 6 -1 -7 11
-14 10 -18 -5 -27 -17 -10 -17 -10 2 -11 18 -1 18 -2 -2 -10 -13 -5 -23 -12
-23 -16 0 -3 7 -4 15 -1 8 4 17 2 20 -4 4 -5 3 -9 -2 -8 -23 4 -35 -2 -29 -16
3 -8 0 -15 -6 -15 -7 0 -6 -5 2 -15 11 -13 10 -14 -4 -9 -12 5 -15 2 -10 -10
4 -11 -1 -22 -12 -31 -17 -13 -17 -16 -4 -25 11 -7 11 -10 2 -10 -7 0 -10 -4
-7 -10 3 -5 0 -7 -7 -5 -13 5 -17 -12 -21 -72 0 -10 -3 -10 -16 0 -12 9 -13 9
-7 0 4 -8 2 -13 -6 -13 -8 0 -9 -3 -3 -8 18 -13 16 -34 -5 -39 -11 -3 -18 -9
-15 -13 3 -5 1 -12 -5 -15 -8 -5 -7 -12 2 -23 12 -13 10 -14 -9 -4 -16 9 -24
9 -29 0 -5 -7 -3 -8 6 -3 10 6 12 4 7 -9 -4 -10 -7 -19 -7 -22 0 -2 -6 -1 -13
2 -8 3 -14 -2 -14 -11 0 -9 6 -14 14 -11 8 3 11 1 8 -4 -3 -6 -13 -10 -21 -10
-8 0 -14 -6 -14 -14 0 -8 -5 -18 -12 -22 -7 -5 -8 -3 -3 6 5 9 4 11 -4 6 -9
-6 -9 -11 1 -24 10 -12 10 -14 1 -8 -8 4 -13 2 -13 -4 0 -6 -4 -8 -10 -5 -6 4
-7 -1 -3 -11 4 -12 3 -15 -5 -10 -11 7 -13 3 -16 -34 -1 -8 -9 -14 -17 -14 -9
1 -16 -6 -15 -15 0 -9 -6 -15 -15 -15 -9 1 -16 -6 -15 -15 1 -10 -6 -15 -17
-15 -15 2 -16 -1 -5 -14 7 -9 9 -13 3 -11 -12 7 -46 -27 -37 -36 4 -3 -1 -3
-10 0 -9 4 -19 1 -24 -6 -5 -8 -3 -10 7 -4 11 7 12 6 2 -7 -7 -8 -9 -19 -5
-24 4 -4 0 -3 -9 4 -14 11 -16 9 -15 -10 1 -18 -4 -23 -21 -22 -13 1 -20 -2
-18 -7 3 -4 -7 -17 -22 -29 -16 -12 -27 -24 -25 -26 7 -12 0 -14 -16 -5 -14 7
-19 6 -19 -4 0 -8 4 -12 9 -9 4 3 8 3 8 0 0 -3 -10 -10 -21 -17 -13 -7 -19 -7
-15 -1 3 6 2 14 -4 17 -6 4 -10 3 -9 -2 5 -29 -3 -43 -23 -42 -13 1 -32 -2
-43 -6 -16 -5 -17 -5 -5 4 10 7 11 11 3 11 -7 0 -13 7 -13 16 0 8 -4 12 -10 9
-9 -5 -14 7 -11 27 0 4 -7 9 -17 12 -9 3 -23 20 -31 36 -7 17 -15 29 -18 26
-10 -9 -30 19 -26 35 3 9 0 20 -6 23 -7 5 -9 0 -5 -11 5 -17 5 -17 -6 0 -6 9
-8 22 -5 27 4 6 -1 7 -11 3 -11 -4 -15 -3 -10 5 3 6 2 13 -4 17 -6 3 -18 21
-27 38 -16 31 -16 32 3 17 18 -14 18 -14 5 3 -7 9 -20 17 -28 17 -12 0 -13 3
-4 14 9 10 7 17 -6 27 -17 13 -17 13 -3 -6 14 -18 14 -19 -1 -7 -10 7 -15 21
-12 32 4 15 0 20 -13 20 -16 0 -17 2 -4 10 10 6 11 10 3 10 -7 0 -13 5 -13 11
0 5 6 7 13 4 6 -4 1 3 -13 15 -15 13 -24 30 -22 42 2 11 -4 28 -13 38 -9 10
-14 23 -11 28 3 6 -1 13 -10 16 -8 3 -12 11 -8 17 3 6 0 15 -7 20 -12 7 -11 9
1 9 13 0 13 1 0 10 -13 9 -13 11 0 20 13 9 13 10 0 11 -8 1 -17 1 -20 1 -3 0
-7 11 -8 24 -1 17 2 23 11 19 6 -4 3 1 -7 9 -15 12 -16 16 -5 16 10 1 9 4 -4
11 -14 8 -16 14 -6 25 9 11 8 14 -2 14 -11 0 -11 2 1 10 8 5 11 10 5 10 -5 0
-3 5 5 10 11 7 11 10 2 10 -7 0 -10 5 -6 11 4 8 -1 9 -17 4 -22 -7 -22 -7 -6
9 9 10 15 22 11 27 -3 6 0 18 7 27 10 12 7 11 -9 -3 -17 -14 -23 -16 -20 -5 2
8 8 18 13 22 6 5 5 8 -4 8 -11 0 -11 3 0 17 12 14 12 16 0 8 -11 -6 -13 -4 -8
7 3 9 0 21 -6 28 -9 10 -9 11 0 6 19 -10 21 17 4 44 -9 13 -11 21 -5 18 7 -5
11 8 11 37 1 31 -3 43 -11 38 -6 -4 -4 2 4 12 9 11 10 16 3 11 -7 -4 -13 -2
-13 3 0 6 8 11 18 12 11 0 7 5 -13 14 -29 13 -29 14 -6 15 24 0 24 0 5 15 -14
11 -15 14 -2 9 14 -5 16 0 11 26 -3 25 -2 30 9 24 10 -6 11 -5 1 7 -12 15 -12
66 0 86 4 6 2 15 -4 19 -8 4 -7 9 2 15 10 6 10 9 2 9 -7 0 -10 7 -7 15 4 8 11
12 18 9 6 -3 3 1 -6 9 -19 15 -25 32 -8 22 6 -4 7 1 3 11 -5 15 -7 15 -15 0
-5 -9 -14 -16 -19 -16 -6 0 -7 5 -4 11 4 6 -2 5 -13 -2 -12 -7 -20 -18 -19
-23 1 -6 -7 -9 -17 -8 -17 3 -18 2 -6 -13 11 -14 11 -16 -1 -13 -8 2 -18 8
-22 13 -5 6 -6 0 -3 -14 4 -18 2 -21 -7 -12 -14 14 -30 15 -22 1 3 -5 -1 -10
-9 -10 -8 0 -18 -5 -22 -12 -5 -7 -3 -8 6 -3 9 5 11 4 6 -4 -6 -9 -11 -9 -21
-1 -14 12 -40 -11 -27 -25 4 -5 -1 -5 -12 -1 -14 5 -17 3 -12 -10 5 -14 4 -15
-9 -4 -9 7 -18 10 -22 6 -3 -3 -1 -6 6 -6 7 0 9 -5 6 -11 -4 -6 -9 -8 -13 -5
-3 3 -11 -2 -19 -12 -8 -9 -12 -12 -9 -5 4 6 1 15 -5 19 -7 4 -9 3 -5 -4 3 -6
2 -13 -4 -17 -6 -4 -7 -12 -3 -18 4 -7 -1 -6 -11 2 -15 12 -17 12 -14 0 2 -8
-3 -13 -9 -12 -7 2 -13 -2 -13 -8 0 -5 -4 -7 -10 -4 -9 5 -14 -7 -12 -26 1 -4
-8 -4 -20 -1 -17 4 -20 2 -15 -11 4 -11 2 -14 -8 -11 -7 3 -18 -4 -25 -15 -7
-15 -18 -20 -34 -17 -20 4 -22 1 -19 -22 2 -15 0 -21 -3 -14 -3 6 -10 12 -15
12 -6 0 -8 -4 -4 -9 3 -5 -4 -12 -15 -16 -18 -6 -24 -17 -21 -37 0 -4 -6 -5
-14 -2 -8 4 -15 1 -15 -6 0 -6 -4 -9 -9 -5 -5 3 -13 0 -17 -6 -5 -8 -3 -9 7
-4 8 5 6 -1 -5 -13 -10 -12 -23 -19 -27 -16 -5 3 -9 -3 -9 -13 0 -15 -2 -16
-11 -3 -9 12 -10 11 -6 -7 4 -16 1 -20 -11 -16 -11 5 -13 3 -7 -6 6 -10 3 -11
-13 -2 -18 10 -20 8 -18 -20 2 -27 1 -29 -10 -14 -14 18 -23 9 -19 -18 3 -14
0 -16 -10 -7 -10 8 -18 4 -34 -16 -12 -15 -20 -33 -17 -40 3 -8 0 -11 -8 -8
-7 3 -19 -3 -27 -13 -13 -17 -13 -17 5 -3 18 14 18 14 6 -7 -8 -11 -20 -19
-27 -16 -12 5 -19 -15 -14 -41 1 -5 -6 -3 -15 5 -10 8 -15 9 -11 2 4 -7 -2
-18 -14 -26 -15 -11 -17 -16 -7 -21 7 -3 3 -4 -10 -2 -20 4 -21 2 -10 -12 11
-13 11 -14 -1 -7 -11 6 -13 4 -7 -10 5 -15 4 -16 -9 -5 -12 10 -15 10 -15 -4
0 -9 -4 -16 -10 -16 -5 0 -10 -7 -10 -15 0 -9 -7 -18 -15 -21 -8 -4 -12 -10
-9 -15 3 -5 0 -9 -5 -9 -6 0 -11 5 -11 12 0 6 -3 8 -6 5 -4 -4 -1 -13 5 -21 9
-11 9 -16 0 -22 -8 -5 -10 -3 -4 7 5 8 -1 6 -13 -5 -12 -10 -20 -22 -17 -25 5
-10 -7 -26 -30 -39 -11 -6 -14 -12 -7 -12 18 0 15 -20 -4 -20 -8 0 -12 -4 -9
-10 3 -5 1 -10 -5 -10 -6 0 -8 -4 -5 -10 6 -9 -8 -15 -29 -11 -5 1 -4 -5 4
-13 9 -12 9 -16 1 -16 -7 0 -10 -4 -7 -9 3 -5 -1 -14 -9 -21 -13 -11 -15 -10
-9 6 5 18 5 18 -6 1 -6 -9 -8 -22 -4 -29 5 -8 0 -9 -17 -5 -23 6 -23 5 -5 -8
19 -14 19 -15 2 -15 -16 0 -17 -2 -5 -17 10 -11 10 -14 1 -9 -7 4 -12 2 -12
-4 0 -6 -4 -9 -9 -6 -5 3 -12 -1 -15 -10 -4 -10 -2 -13 7 -8 6 4 3 -3 -7 -15
-20 -22 -20 -22 0 -16 17 6 17 6 1 -5 -9 -6 -23 -8 -30 -4 -9 6 -9 5 0 -7 7
-9 8 -20 3 -29 -5 -8 -6 -18 -3 -24 3 -5 1 -6 -5 -2 -11 7 -17 -13 -13 -38 1
-5 -5 -4 -13 3 -12 10 -14 9 -9 -10 5 -17 3 -20 -8 -14 -11 7 -11 5 1 -10 8
-10 10 -16 3 -12 -6 4 -14 3 -18 -3 -3 -5 0 -10 7 -11 7 0 3 -4 -10 -9 -12 -5
-22 -15 -21 -22 0 -10 2 -10 6 0 2 6 9 12 15 12 17 0 -13 -30 -31 -31 -13 0
-12 -2 3 -8 18 -7 18 -8 0 -25 -17 -18 -22 -29 -26 -69 -2 -11 -8 -16 -18 -12
-11 4 -10 1 2 -9 23 -17 23 -27 1 -19 -15 6 -16 4 -5 -9 10 -13 10 -18 1 -24
-8 -5 -10 -3 -4 7 6 11 5 12 -5 2 -11 -10 -11 -15 0 -28 10 -12 10 -15 -5 -15
-15 0 -16 -2 -4 -17 12 -14 12 -16 0 -8 -11 6 -13 4 -7 -10 5 -14 4 -15 -6 -7
-11 8 -13 3 -12 -23 1 -20 -4 -36 -11 -39 -8 -3 -11 -13 -8 -26 4 -13 0 -26
-8 -31 -12 -8 -12 -11 1 -19 10 -6 11 -10 3 -10 -7 0 -13 -6 -13 -14 0 -8 -6
-17 -12 -20 -7 -3 -2 -3 12 0 16 3 20 2 12 -3 -7 -5 -10 -23 -8 -41 3 -25 1
-30 -9 -22 -9 8 -14 6 -19 -5 -3 -9 -2 -13 4 -10 6 3 10 1 10 -4 0 -6 -6 -11
-12 -11 -9 0 -8 -4 2 -10 12 -8 12 -10 1 -10 -11 0 -11 -3 0 -17 8 -9 9 -14 3
-10 -8 5 -11 -7 -9 -38 1 -25 -3 -48 -8 -52 -6 -3 -7 -1 -3 5 5 8 2 10 -8 6
-14 -5 -13 -8 2 -23 10 -9 11 -11 3 -6 -12 8 -13 6 -8 -7 4 -11 2 -18 -6 -18
-8 0 -8 -3 2 -9 7 -5 9 -11 4 -14 -11 -7 -11 -37 1 -55 4 -7 2 -12 -5 -12 -8
0 -8 -4 1 -15 10 -12 10 -15 0 -15 -10 0 -10 -3 -1 -14 9 -11 9 -15 -1 -19 -9
-4 -10 -6 -1 -6 7 -1 10 -8 6 -17 -9 -25 -10 -187 0 -207 5 -12 4 -24 -5 -35
-11 -13 -11 -14 1 -7 11 6 13 4 7 -10 -5 -14 -4 -16 7 -7 10 9 14 8 14 -3 0
-8 -5 -15 -10 -15 -5 0 -3 -8 4 -17 10 -11 10 -14 2 -9 -10 5 -11 1 -2 -21 5
-15 8 -37 4 -50 -3 -15 1 -25 12 -32 17 -10 17 -10 -1 -11 -15 0 -16 -3 -6
-15 7 -8 9 -15 6 -15 -4 0 -1 -7 7 -15 9 -8 13 -24 10 -35 -3 -13 0 -20 8 -20
10 0 10 -3 1 -12 -15 -15 -16 -32 -1 -23 6 4 9 0 7 -11 -2 -11 2 -18 10 -17 6
2 12 -2 12 -7 0 -6 -8 -10 -17 -11 -11 0 -13 -3 -5 -6 6 -2 9 -10 5 -16 -4 -6
0 -8 9 -4 12 4 14 1 10 -15 -3 -13 -1 -19 5 -15 6 4 11 1 10 -6 -1 -46 4 -68
16 -61 7 5 7 1 -2 -10 -13 -15 -13 -19 0 -27 12 -8 12 -10 0 -18 -11 -7 -9
-10 9 -16 18 -6 20 -9 9 -16 -8 -5 -9 -9 -4 -9 12 0 40 -59 31 -67 -3 -3 0
-15 6 -27 7 -11 11 -25 10 -29 -1 -5 6 -11 17 -14 12 -3 17 -11 14 -19 -3 -8
-10 -11 -16 -7 -6 3 -7 1 -3 -5 4 -6 14 -8 23 -5 10 4 14 2 10 -4 -4 -6 0 -18
8 -26 11 -12 12 -17 2 -20 -9 -4 -9 -6 1 -6 6 -1 12 -8 12 -17 0 -9 -5 -12
-12 -8 -9 5 -9 2 1 -9 15 -18 26 -23 16 -7 -3 5 -1 10 4 10 10 0 15 -22 14
-57 0 -7 8 -15 18 -18 21 -7 26 -35 7 -35 -6 0 -8 -3 -5 -6 4 -4 14 -1 24 7 9
8 14 9 10 2 -4 -6 0 -18 8 -26 11 -12 12 -17 2 -21 -6 -4 -2 -4 11 -2 19 4 21
2 11 -10 -8 -10 -8 -14 0 -14 6 0 11 -5 11 -11 0 -5 -4 -7 -10 -4 -16 10 -11
-1 7 -16 11 -10 14 -10 9 -1 -4 6 -2 12 3 12 6 0 11 -12 11 -26 0 -14 3 -23 7
-21 5 3 13 -1 20 -8 10 -11 10 -15 0 -18 -9 -4 -9 -6 1 -6 7 -1 10 -5 7 -11
-3 -5 -1 -10 4 -10 6 0 11 5 11 12 0 6 3 8 6 5 4 -4 2 -13 -5 -20 -9 -11 -7
-17 6 -28 17 -13 17 -13 3 6 -14 18 -13 19 1 8 9 -7 20 -9 24 -5 5 4 5 1 1 -6
-5 -8 -1 -19 10 -28 18 -13 18 -14 -1 -7 -17 6 -18 5 -5 -9 8 -9 18 -14 23
-11 4 2 7 -1 7 -7 0 -6 5 -8 13 -4 7 5 7 2 -2 -10 -8 -9 -10 -16 -5 -15 19 3
34 -1 34 -12 0 -5 -4 -7 -10 -4 -16 10 -11 -1 7 -16 11 -10 14 -10 9 -1 -16
26 10 10 31 -20 17 -24 20 -34 10 -41 -8 -6 -7 -7 5 -4 18 6 42 -15 31 -27 -4
-4 0 -4 9 -1 13 5 16 1 14 -19 -2 -14 0 -23 5 -21 4 3 11 0 14 -6 4 -5 13 -8
21 -5 8 3 11 0 7 -10 -4 -10 0 -12 11 -8 12 5 15 2 10 -10 -4 -9 -3 -16 2 -15
5 1 17 -1 27 -6 15 -6 16 -10 5 -17 -9 -7 -7 -8 10 -5 12 3 20 1 16 -4 -3 -5
0 -9 6 -9 6 0 8 -4 5 -10 -3 -6 4 -10 17 -10 18 0 20 -2 8 -10 -12 -8 -10 -10
8 -10 13 0 20 -4 17 -10 -3 -5 -1 -10 5 -10 6 0 9 -4 6 -9 -4 -5 2 -7 13 -4
13 3 20 -2 25 -21 4 -17 11 -23 21 -20 13 5 19 -5 17 -27 -1 -4 7 -5 17 -2 13
3 21 -2 26 -17 5 -17 10 -19 21 -9 11 9 14 8 14 -6 0 -11 5 -15 14 -12 9 4 18
-2 22 -15 4 -14 9 -17 13 -9 6 9 11 8 21 -3 7 -9 17 -13 23 -9 6 3 7 1 3 -5
-4 -7 -1 -12 8 -12 9 0 16 -4 16 -10 0 -5 9 -10 20 -10 11 0 20 -5 20 -11 0
-5 -4 -7 -10 -4 -16 10 -11 -1 7 -16 11 -10 14 -10 9 -1 -4 6 -2 12 3 12 6 0
11 -5 11 -11 0 -5 5 -7 10 -4 5 3 10 0 10 -8 0 -8 7 -18 16 -21 14 -5 15 -4 4
9 -11 13 -10 14 4 9 9 -3 16 -14 17 -23 0 -12 2 -12 9 4 8 19 9 19 9 -3 1 -13
5 -20 11 -17 6 3 10 1 10 -6 0 -8 4 -8 15 1 11 9 15 9 15 1 0 -7 3 -10 8 -7 4
2 25 -4 46 -14 26 -11 34 -20 25 -24 -8 -3 -6 -5 6 -3 11 2 25 -4 32 -13 10
-12 12 -12 13 -1 0 8 8 4 20 -10 17 -21 21 -22 31 -9 9 12 10 10 5 -10 -4 -22
-4 -23 8 -7 7 9 19 17 25 17 9 0 8 4 -1 14 -7 8 -16 12 -20 9 -5 -2 -8 5 -8
17 0 12 -4 18 -10 15 -5 -3 -10 1 -10 9 0 15 -12 21 -33 17 -5 -1 -6 3 -2 9 3
6 12 8 18 4 7 -3 3 1 -7 10 -10 8 -24 12 -30 9 -6 -4 -5 0 2 9 10 13 10 18 1
24 -8 4 -9 3 -5 -4 4 -7 3 -12 -2 -12 -16 0 -21 13 -12 31 7 12 6 20 -2 25 -6
4 -8 3 -4 -4 4 -6 -1 -10 -13 -9 -16 1 -18 4 -8 16 9 11 9 13 0 8 -6 -4 -14
-3 -18 3 -3 5 -1 10 5 10 15 0 -26 52 -53 67 -12 7 -16 12 -8 13 8 0 4 8 -10
21 -13 11 -18 17 -11 14 11 -6 12 -3 3 14 -7 11 -14 21 -17 21 -3 0 -2 -6 2
-13 4 -6 -2 -3 -15 7 -12 11 -19 26 -17 33 3 8 -2 13 -12 13 -13 0 -14 2 -4 9
11 6 10 10 -4 15 -9 3 -14 9 -11 13 4 3 -1 12 -11 20 -9 8 -11 12 -5 8 9 -4
11 -1 7 10 -4 10 -14 14 -28 10 -11 -2 -15 -2 -8 1 6 3 12 12 12 20 0 9 -5 12
-11 8 -7 -4 -9 0 -5 14 4 12 2 23 -5 28 -8 4 -9 3 -5 -4 4 -8 2 -10 -7 -6 -9
3 -13 13 -10 25 3 10 0 25 -6 32 -6 8 -7 18 -3 22 4 5 1 5 -6 1 -11 -6 -11
-11 0 -24 12 -15 11 -16 -5 -3 -9 7 -16 19 -16 25 3 14 -18 66 -26 66 -4 0 -3
-5 1 -12 4 -7 3 -8 -5 -4 -9 6 -9 11 0 22 10 13 6 18 -13 15 -4 0 -4 7 -1 16
4 11 3 14 -5 9 -7 -4 -12 -3 -12 3 0 5 4 12 9 16 5 3 -1 16 -15 30 -14 14 -21
30 -18 39 3 9 1 16 -5 16 -9 0 -9 5 0 21 8 15 8 19 0 15 -6 -4 -11 -2 -11 4 0
6 -5 8 -11 4 -8 -4 -9 1 -4 16 4 14 3 20 -3 16 -17 -10 -34 41 -20 61 6 7 4
14 -3 19 -8 5 -9 3 -4 -6 5 -9 4 -11 -4 -6 -9 6 -9 11 1 24 11 13 11 15 -3 10
-12 -5 -15 -1 -12 15 5 28 -22 103 -36 100 -5 -2 -8 4 -4 12 3 9 10 12 17 8 7
-5 4 -1 -6 9 -13 12 -15 18 -6 21 8 3 5 6 -6 6 -14 1 -16 4 -7 14 8 11 6 18
-9 32 -16 15 -18 21 -7 33 9 12 9 14 0 8 -9 -5 -12 1 -9 23 2 18 -1 31 -8 31
-6 0 -2 7 8 15 11 8 15 15 10 15 -9 0 -14 19 -17 68 -1 17 -5 21 -21 16 -21
-6 -21 -6 -1 10 11 8 15 16 9 16 -6 0 -10 10 -9 22 1 13 -3 29 -9 37 -7 9 -7
12 -1 9 7 -4 11 5 10 23 0 16 -4 29 -8 29 -5 0 -5 6 -1 13 6 9 4 9 -8 -1 -13
-10 -18 -10 -24 -1 -4 8 -3 9 4 5 7 -4 12 -1 12 9 0 10 5 13 13 9 9 -6 9 -5 0
8 -7 8 -10 18 -6 21 3 4 2 7 -4 7 -5 0 -10 7 -10 15 0 8 5 15 10 15 5 0 3 8
-4 17 -12 15 -12 16 6 10 20 -7 20 -7 1 8 -11 8 -15 15 -10 15 6 0 11 7 11 15
0 12 -3 12 -16 2 -13 -10 -12 -7 2 15 9 15 17 31 17 35 0 4 -4 2 -9 -6 -6 -10
-9 11 -8 57 1 42 -2 72 -8 72 -7 0 -7 3 0 8 12 9 16 84 4 76 -5 -3 -9 0 -9 5
0 6 4 11 9 11 11 0 9 19 -3 39 -6 10 -5 12 2 7 15 -9 15 -1 1 26 -8 15 -8 19
0 14 12 -8 11 21 -2 42 -5 7 -3 12 3 12 7 0 10 6 7 14 -3 7 -1 18 5 24 6 6 6
12 -3 17 -8 6 -10 4 -4 -5 5 -9 4 -11 -4 -6 -9 6 -9 11 0 22 6 8 8 14 3 14 -5
0 -2 5 6 10 10 6 11 10 3 10 -7 0 -13 5 -13 11 0 5 5 7 11 3 7 -4 7 1 -1 16
-8 15 -8 20 -1 16 10 -6 15 6 12 27 0 4 9 7 21 7 19 0 20 -2 8 -10 -12 -8 -12
-10 5 -10 15 0 17 -2 6 -9 -7 -5 -9 -11 -4 -14 4 -3 8 -35 7 -71 0 -36 3 -63
8 -60 5 3 5 10 2 16 -4 6 -3 8 3 5 5 -3 8 -20 5 -37 -3 -21 0 -30 9 -30 11 0
11 -2 -1 -10 -8 -5 -10 -10 -3 -10 12 0 12 -24 0 -36 -4 -4 -7 -12 -7 -18 0
-6 5 -4 10 4 7 11 10 5 11 -25 1 -22 1 -46 0 -53 -1 -6 3 -12 9 -12 6 0 8 5 5
10 -3 6 -1 10 4 10 16 0 13 -11 -6 -33 -10 -11 -13 -18 -7 -14 6 4 16 -5 23
-20 11 -24 11 -25 -5 -12 -16 13 -16 12 -4 -11 7 -14 14 -27 14 -30 1 -3 5 -4
9 -2 5 1 6 -2 2 -8 -3 -6 -10 -8 -14 -6 -4 3 -8 -1 -8 -9 0 -8 10 -15 21 -15
17 0 18 -2 6 -9 -8 -6 -18 -7 -22 -5 -4 3 -5 -2 -2 -10 3 -9 10 -16 16 -16 5
0 6 5 2 12 -4 7 -3 8 5 4 9 -6 9 -11 0 -22 -9 -11 -8 -14 2 -14 11 0 11 -2 -1
-10 -9 -6 -10 -10 -3 -10 8 0 11 -13 8 -40 -2 -22 2 -46 8 -53 7 -7 13 -19 15
-27 2 -8 9 -18 15 -22 8 -5 5 -8 -8 -9 -11 0 -14 -3 -7 -6 6 -2 9 -9 6 -14 -3
-6 0 -17 8 -26 7 -10 8 -14 1 -10 -13 8 -12 -18 2 -30 4 -4 5 -1 1 7 -4 8 -1
7 8 -4 12 -14 13 -24 5 -39 -6 -10 -7 -17 -2 -14 6 4 10 -7 11 -23 0 -17 -4
-30 -10 -30 -6 0 -8 -3 -5 -6 4 -4 12 -2 20 4 10 8 13 6 14 -9 1 -12 -3 -17
-10 -13 -7 3 -4 -1 6 -9 20 -16 23 -32 5 -20 -7 4 -6 -4 4 -19 12 -19 14 -28
5 -37 -8 -8 -8 -11 1 -11 7 0 12 -5 12 -11 0 -5 -4 -8 -8 -5 -5 3 -9 -1 -9 -9
0 -10 4 -12 12 -5 7 5 15 7 18 3 4 -3 -1 -12 -11 -20 -16 -12 -16 -13 2 -6 15
5 18 3 14 -9 -4 -8 -2 -21 2 -29 6 -8 4 -16 -3 -21 -8 -5 -6 -8 6 -8 9 0 17 5
17 12 0 6 3 8 6 5 4 -4 1 -13 -6 -22 -8 -9 -8 -15 -2 -15 6 0 9 -9 7 -20 -2
-11 0 -20 5 -20 4 0 11 -7 14 -16 6 -15 4 -15 -11 -3 -16 12 -17 12 -6 -2 7
-9 10 -19 6 -23 -4 -4 1 -4 12 0 16 5 17 4 9 -5 -9 -10 -8 -20 3 -42 8 -16 18
-27 22 -24 5 2 6 -7 3 -22 -4 -19 -2 -24 8 -18 9 6 10 3 1 -13 -8 -16 -7 -23
6 -33 9 -8 18 -13 20 -11 5 4 2 -13 -4 -18 -4 -3 -3 1 2 9 6 10 4 12 -5 6 -10
-6 -9 -11 4 -21 13 -9 14 -13 4 -17 -11 -4 -11 -6 0 -6 8 -1 10 -6 6 -13 -5
-8 0 -7 11 2 10 8 16 10 12 3 -4 -6 -1 -14 5 -16 7 -3 4 -6 -7 -7 -17 -1 -17
-3 5 -12 24 -10 24 -10 5 -18 -14 -6 -16 -9 -5 -10 8 -2 19 -1 25 0 5 1 7 -2
3 -6 -4 -4 -2 -14 5 -22 10 -13 9 -15 -3 -8 -9 4 -8 2 2 -7 10 -8 15 -17 11
-20 -3 -4 -1 -7 5 -7 6 0 9 -7 5 -17 -5 -11 -3 -14 6 -8 10 5 11 2 6 -14 -4
-13 -2 -21 5 -21 6 0 9 -4 5 -9 -3 -5 0 -13 6 -17 7 -4 9 -3 5 4 -3 6 -1 14 5
18 8 4 9 3 5 -4 -4 -6 2 -19 13 -29 11 -9 18 -20 16 -24 -3 -4 2 -12 10 -19 7
-6 11 -19 8 -27 -5 -13 -2 -15 12 -10 16 7 16 5 4 -10 -8 -9 -9 -14 -4 -11 6
4 17 3 25 -3 12 -6 12 -9 2 -9 -10 0 -10 -3 2 -15 8 -8 19 -15 24 -15 6 0 8
-10 5 -22 -4 -19 -3 -20 6 -8 9 12 11 11 11 -7 0 -13 6 -23 14 -23 17 0 29
-27 19 -43 -4 -7 1 -6 10 2 15 12 17 12 11 -3 -3 -9 -1 -16 4 -16 6 0 9 -9 7
-20 -2 -12 0 -18 6 -15 5 4 7 10 4 15 -3 5 0 12 6 16 7 4 9 3 6 -3 -4 -5 2
-19 13 -30 10 -12 16 -24 13 -27 -4 -3 -1 -6 6 -6 7 0 9 -4 6 -10 -4 -6 1 -7
11 -3 12 4 15 3 10 -5 -4 -7 -2 -12 4 -12 6 0 9 -4 5 -9 -3 -5 -1 -12 4 -15 5
-4 13 -1 17 5 5 8 3 9 -6 4 -9 -5 -11 -4 -6 4 4 6 12 9 17 5 5 -3 7 -9 4 -14
-7 -11 22 -33 34 -26 5 3 7 -4 5 -16 -2 -13 -1 -17 2 -10 4 9 11 7 25 -9 10
-12 19 -25 19 -28 0 -3 10 -12 23 -20 l22 -14 -20 23 -20 23 23 -14 c12 -8 22
-20 22 -28 0 -8 3 -11 7 -8 3 4 13 -2 20 -13 8 -11 19 -18 24 -15 5 4 9 -2 9
-12 0 -14 2 -15 9 -5 7 11 9 11 14 -2 4 -9 14 -16 23 -16 10 0 14 -5 10 -15
-5 -13 -2 -14 16 -4 17 9 20 9 15 -4 -4 -10 0 -14 11 -12 9 1 23 -3 31 -9 8
-6 17 -10 20 -8 3 2 7 -2 9 -10 2 -9 0 -8 -7 2 -6 8 -11 10 -11 4 0 -6 8 -18
17 -25 11 -10 14 -10 9 -2 -4 7 -2 13 3 13 6 0 11 -5 11 -10 0 -7 6 -7 20 0
11 6 20 7 20 3 0 -4 7 3 16 15 13 18 19 20 36 11 13 -7 18 -7 14 -1 -3 6 -2
13 4 17 5 3 10 2 10 -3 0 -5 7 -9 15 -9 11 0 12 4 4 13 -7 8 -7 14 1 19 5 3
10 1 10 -6 0 -7 9 -4 23 9 16 15 26 18 39 11 13 -7 20 -5 27 10 7 13 18 17 31
14 12 -3 20 0 20 6 0 7 -5 9 -12 5 -7 -4 -8 -3 -4 5 4 6 13 8 19 4 21 -13 47
-10 60 6 11 14 10 14 -5 2 -10 -7 -18 -9 -18 -4 0 5 12 15 26 21 14 7 23 8 19
2 -3 -6 1 -7 9 -4 9 3 16 10 16 16 0 5 4 7 9 3 5 -3 13 0 17 6 5 8 3 9 -7 4
-12 -7 -12 -5 -1 6 11 11 14 12 21 1 7 -11 9 -11 14 1 3 8 0 21 -6 28 -10 11
-9 11 4 1 12 -9 19 -9 29 1 10 9 11 9 6 0 -5 -9 -2 -11 9 -7 11 5 13 10 5 19
-9 11 -7 12 9 8 14 -3 21 -1 21 8 0 11 2 11 10 -1 8 -13 10 -13 10 2 0 11 5
15 15 12 9 -4 15 0 15 9 0 9 5 19 12 23 8 5 9 2 5 -9 -5 -14 -3 -15 13 -5 10
7 17 15 14 19 -2 4 0 10 6 14 5 3 10 0 10 -7 1 -7 6 -3 13 10 7 12 16 19 20
16 4 -4 7 -2 7 5 0 7 7 11 14 8 10 -4 13 -1 10 7 -3 8 0 17 7 22 8 5 10 3 4
-7 -7 -11 -6 -12 7 -2 8 7 19 9 24 5 4 -4 2 2 -6 12 -10 13 -10 17 -2 12 6 -4
12 -3 12 3 0 6 12 14 26 17 16 4 23 11 20 20 -5 12 -2 12 17 3 21 -12 21 -11
7 6 -9 11 -10 16 -2 11 6 -4 12 -3 12 3 0 5 9 8 20 6 11 -2 23 1 26 7 5 7 2 8
-6 3 -8 -5 -11 -3 -8 6 3 8 11 14 19 14 8 1 13 7 11 14 -2 8 3 11 12 8 10 -4
14 0 11 13 -3 14 1 17 12 13 12 -5 14 -3 8 7 -6 10 -4 12 8 7 11 -4 15 -1 12
13 -3 14 1 17 12 13 13 -5 15 -2 10 12 -7 16 -5 16 10 4 9 -8 14 -9 10 -3 -3
6 3 16 13 24 10 8 17 17 14 22 -3 4 0 8 6 8 6 0 8 4 5 10 -3 6 1 7 9 4 19 -7
22 12 4 20 -7 3 -2 3 12 0 14 -4 22 -3 18 1 -4 4 11 23 33 41 23 19 37 34 32
34 -5 0 -10 7 -10 15 0 8 4 15 9 15 5 0 6 6 2 13 -5 7 0 6 11 -3 10 -8 16 -10
12 -3 -4 6 -1 14 5 16 10 4 10 6 1 6 -7 1 -13 6 -13 12 0 5 5 7 12 3 8 -5 9
-2 4 11 -5 14 -4 16 8 6 11 -9 15 -8 20 4 4 11 2 14 -7 9 -9 -6 -9 -5 0 8 7 8
10 17 7 21 -3 3 5 3 18 0 18 -4 20 -3 8 6 -14 10 -7 15 13 12 4 -1 3 8 -3 19
-9 16 -8 19 6 13 14 -5 16 -2 11 16 -3 13 -3 20 0 17 4 -3 15 1 25 10 13 12
15 21 7 30 -7 9 -4 16 12 27 14 10 19 22 15 32 -3 9 -2 14 3 11 14 -9 31 19
26 43 -3 17 0 21 11 17 8 -3 12 -2 9 3 -3 5 -1 12 4 15 5 4 8 18 6 32 -1 16 2
24 10 21 6 -3 12 1 12 9 0 7 -3 11 -7 9 -4 -2 -7 2 -7 10 0 8 4 12 9 9 4 -3 8
2 8 11 0 9 4 14 8 11 5 -3 9 1 9 9 0 8 -5 11 -11 8 -6 -4 -5 0 2 9 10 13 10
17 0 21 -9 4 -7 6 4 6 9 1 20 6 24 13 4 6 3 8 -4 4 -6 -4 -10 1 -9 13 1 15 4
17 14 9 11 -9 12 -6 3 16 -5 15 -6 25 -1 21 5 -3 12 -1 16 5 3 5 2 10 -3 10
-5 0 -9 7 -9 15 0 12 3 12 15 2 13 -10 14 -9 3 12 -7 13 -9 21 -3 17 5 -3 12
3 15 14 3 14 1 18 -6 13 -7 -4 -4 5 6 20 16 25 16 26 0 20 -15 -6 -16 -4 -6 9
7 8 11 29 9 46 -2 18 1 29 6 26 5 -3 7 -12 4 -20 -3 -7 -1 -16 3 -18 12 -8 8
48 -4 56 -6 5 -3 8 8 8 9 0 17 5 17 11 0 5 -4 7 -10 4 -5 -3 -10 -1 -10 4 0 6
5 11 10 11 7 0 7 7 -1 21 -8 15 -8 19 0 15 6 -4 12 -2 12 3 3 21 4 26 14 41 8
13 7 13 -8 1 -22 -18 -21 -2 2 28 16 21 17 27 5 49 -11 22 -11 27 4 40 9 7 11
11 5 7 -16 -7 -16 -4 -3 30 7 17 7 24 0 20 -13 -8 -13 8 1 22 7 7 8 13 0 17
-6 4 -7 15 -1 30 5 13 4 29 -1 37 -11 17 -12 32 -1 25 4 -2 8 4 8 15 0 10 -4
19 -9 19 -5 0 -3 8 4 17 12 15 12 16 -1 8 -13 -8 -13 -7 -1 8 7 9 9 17 3 17
-5 0 -13 7 -16 16 -3 8 -2 12 3 9 5 -3 12 -1 16 5 3 5 2 10 -3 10 -5 0 -9 7
-9 15 0 8 4 15 9 15 5 0 2 7 -6 16 -12 12 -13 20 -6 35 6 10 8 19 4 19 -3 0
-1 7 6 15 10 12 9 16 -4 21 -9 3 -16 10 -16 16 0 5 4 6 10 3 6 -3 7 1 4 9 -3
9 -11 13 -18 9 -6 -4 -5 1 3 10 7 9 9 17 3 17 -15 0 -23 28 -10 36 7 4 8 3 4
-4 -5 -8 -1 -10 9 -5 13 4 14 8 4 14 -7 4 -14 17 -16 29 -2 15 1 19 9 14 9 -6
9 -3 -1 9 -7 9 -11 23 -7 32 3 8 0 14 -6 12 -6 -1 -13 4 -16 12 -3 8 0 11 7 7
6 -4 11 -1 11 7 0 8 -10 19 -22 25 -13 6 -17 11 -9 11 11 1 11 4 0 18 -8 9 -9
14 -3 10 7 -4 15 0 18 9 3 8 2 13 -3 10 -5 -3 -11 3 -14 14 -3 10 0 21 7 24 7
3 8 7 1 13 -5 4 -10 26 -11 48 -1 30 -5 40 -17 39 -9 -1 -13 4 -10 12 3 8 9
12 13 9 5 -3 12 -1 15 5 4 6 3 10 -2 9 -20 -4 -24 2 -12 18 8 9 9 14 4 11 -6
-4 -17 -3 -25 3 -12 7 -12 9 3 9 17 0 17 1 0 27 -10 15 -13 24 -7 20 7 -4 11
2 10 16 -1 15 -7 21 -20 19 -13 -2 -16 0 -10 10 13 20 13 38 2 38 -7 0 -7 5 1
13 14 17 4 28 -17 20 -14 -5 -15 -3 -4 8 17 19 15 32 -5 25 -15 -6 -14 -4 2
14 17 18 17 20 2 14 -15 -5 -16 -3 -7 21 10 28 5 49 -10 40 -5 -3 -11 -1 -14
4 -3 5 1 12 10 15 17 6 10 26 -9 26 -7 0 -6 -4 3 -11 13 -9 13 -10 0 -6 -17 4
-21 26 -7 45 9 12 8 13 -12 16 -5 0 -13 5 -18 10 -5 5 -3 6 5 2 7 -4 12 -1 12
9 0 10 -5 13 -12 9 -8 -5 -7 0 2 11 9 11 10 16 3 11 -13 -7 -15 -1 -16 42 0
14 -5 21 -12 19 -6 -3 -12 1 -12 9 0 7 4 11 8 9 14 -9 3 22 -14 39 -22 22 -21
27 1 20 9 -3 6 2 -8 10 -14 8 -21 15 -16 16 5 0 3 6 -3 13 -6 8 -8 17 -5 20 3
3 2 12 -2 19 -4 7 -9 21 -10 32 0 11 -6 22 -12 24 -7 2 -12 8 -12 13 0 6 4 8
9 5 11 -7 9 13 -2 32 -5 7 -14 9 -20 5 -7 -4 -5 2 3 12 12 15 12 17 1 10 -11
-6 -13 -4 -8 8 4 11 1 17 -8 17 -8 0 -15 5 -15 11 0 5 4 8 9 5 14 -9 6 23 -9
37 -11 9 -11 8 0 -8 14 -19 14 -19 -3 -6 -12 10 -14 17 -7 26 7 8 4 17 -10 30
-11 10 -20 31 -20 47 0 15 -5 28 -11 28 -6 0 -8 7 -5 16 3 8 2 13 -3 10 -5 -3
-11 3 -14 14 -3 13 -1 18 5 13 7 -4 8 -1 2 8 -5 8 -9 16 -9 19 -3 21 -18 50
-26 50 -5 0 -2 -11 7 -25 15 -23 15 -25 1 -19 -9 3 -16 9 -15 12 0 4 -1 12 -2
17 -1 6 -3 19 -4 30 0 12 -7 19 -15 17 -12 -3 -12 0 -1 12 7 10 8 16 2 16 -6
0 -9 9 -7 20 2 12 -2 20 -9 20 -17 0 -28 37 -12 44 7 3 7 5 -2 5 -7 1 -10 5
-7 11 4 6 -1 7 -11 3 -12 -4 -15 -3 -10 5 4 7 2 12 -6 12 -9 0 -9 3 2 10 12 7
12 10 1 10 -7 0 -11 6 -8 15 4 8 1 17 -5 21 -6 4 -8 3 -5 -3 3 -5 0 -10 -8
-10 -10 0 -11 5 -6 16 6 10 4 20 -7 29 -10 7 -12 11 -7 8 6 -2 11 4 11 14 0
14 -4 16 -12 9 -8 -7 -15 -6 -20 2 -4 7 -3 9 4 5 7 -4 10 1 9 14 -1 11 -5 20
-10 20 -4 0 -5 4 -2 10 4 6 -1 7 -11 3 -12 -4 -15 -3 -10 6 4 6 2 18 -4 26 -7
8 -9 15 -4 15 4 0 -1 7 -12 15 -19 15 -19 15 1 9 20 -7 20 -7 0 9 -11 8 -17
18 -13 22 3 4 -2 15 -13 26 -11 11 -17 24 -14 30 4 5 1 8 -6 7 -7 -2 -13 4
-14 12 0 8 -7 14 -15 12 -11 -3 -11 0 1 14 8 10 9 15 2 11 -6 -4 -14 -3 -18 3
-3 5 -1 10 4 10 6 0 11 5 11 11 0 5 -5 7 -12 3 -7 -5 -9 0 -6 14 3 12 3 21 -1
20 -3 0 -13 0 -21 1 -12 1 -13 3 -1 10 11 7 9 10 -8 16 -18 5 -19 10 -10 27 9
16 8 19 -2 13 -9 -6 -11 -3 -6 8 4 12 2 14 -10 10 -13 -5 -15 -2 -10 11 4 9 3
15 -2 12 -5 -3 -12 1 -15 10 -3 9 -2 12 5 8 6 -3 5 3 -3 15 -7 12 -16 21 -21
21 -4 0 -6 -4 -2 -9 3 -5 1 -12 -4 -15 -5 -4 -7 7 -5 24 3 17 1 30 -5 30 -6 0
-7 -7 -4 -17z m14 -170 c13 -16 12 -17 -3 -4 -17 13 -22 21 -14 21 2 0 10 -8
17 -17z m-61 -497 c0 -3 -4 -8 -10 -11 -5 -3 -10 -1 -10 4 0 6 5 11 10 11 6 0
10 -2 10 -4z m-1882 -98 c-7 -13 -11 -27 -10 -31 1 -5 -2 -6 -8 -2 -10 6 -7
17 13 43 15 20 19 14 5 -10z m792 -82 c0 -3 -4 -8 -10 -11 -5 -3 -10 -1 -10 4
0 6 5 11 10 11 6 0 10 -2 10 -4z m80 -306 c0 -5 -4 -10 -10 -10 -5 0 -10 5
-10 10 0 6 5 10 10 10 6 0 10 -4 10 -10z m1770 -480 c0 -5 -5 -10 -11 -10 -5
0 -7 5 -4 10 3 6 8 10 11 10 2 0 4 -4 4 -10z m-1425 -29 c3 -5 2 -12 -3 -15
-5 -3 -9 1 -9 9 0 17 3 19 12 6z m1475 -171 c0 -5 -5 -10 -11 -10 -5 0 -7 5
-4 10 3 6 8 10 11 10 2 0 4 -4 4 -10z m-2620 -450 c-24 -15 -36 -11 -14 4 10
8 21 12 24 10 2 -3 -2 -9 -10 -14z m14 -35 c-3 -7 -12 -16 -20 -19 -9 -3 -12
-10 -9 -16 3 -5 2 -10 -3 -10 -5 0 -9 13 -8 29 0 16 4 27 8 25 3 -2 9 0 13 6
9 15 25 2 19 -15z m2706 -119 c0 -3 -4 -8 -10 -11 -5 -3 -10 -1 -10 4 0 6 5
11 10 11 6 0 10 -2 10 -4z m-12 -487 c10 -13 9 -19 -5 -30 -16 -13 -17 -12 -5
3 9 11 10 18 2 23 -5 3 -10 11 -10 17 0 6 1 9 3 7 1 -2 8 -11 15 -20z m-2561
-94 c0 -8 -4 -12 -9 -9 -5 3 -6 10 -3 15 9 13 12 11 12 -6z m-120 -310 c0 -8
-4 -12 -9 -9 -5 3 -6 10 -3 15 9 13 12 11 12 -6z m-680 -77 c2 -17 0 -19 -7
-8 -5 8 -6 18 -4 22 8 12 10 10 11 -14z m3213 -164 c0 -8 -19 -13 -24 -6 -3 5
1 9 9 9 8 0 15 -2 15 -3z m-85 -174 c-3 -5 -12 -10 -18 -10 -7 0 -6 4 3 10 19
12 23 12 15 0z m-161 -239 c3 -4 -7 -19 -22 -32 l-27 -24 23 26 c12 14 19 29
15 32 -3 4 -4 7 0 7 3 0 8 -4 11 -9z m-2470 -177 c3 -8 2 -12 -4 -9 -6 3 -10
10 -10 16 0 14 7 11 14 -7z m681 -304 c3 -6 -1 -7 -9 -4 -18 7 -21 14 -7 14 6
0 13 -4 16 -10z m128 -215 c-3 -9 -8 -14 -10 -11 -3 3 -2 9 2 15 9 16 15 13 8
-4z"/>
<path d="M1629 2593 c-13 -16 -12 -17 4 -4 9 7 17 15 17 17 0 8 -8 3 -21 -13z"/>
<path d="M3459 4428 c-6 -21 -5 -38 1 -38 5 0 8 9 7 20 -1 17 -5 26 -8 18z"/>
<path d="M2567 3509 c7 -7 15 -10 18 -7 3 3 -2 9 -12 12 -14 6 -15 5 -6 -5z"/>
<path d="M833 1925 c0 -8 4 -12 9 -9 5 3 6 10 3 15 -9 13 -12 11 -12 -6z"/>
<path d="M886 1727 c3 -10 9 -15 12 -12 3 3 0 11 -7 18 -10 9 -11 8 -5 -6z"/>
<path d="M940 1539 c0 -5 5 -7 10 -4 6 3 10 8 10 11 0 2 -4 4 -10 4 -5 0 -10
-5 -10 -11z"/>
<path d="M1687 1469 c7 -7 15 -10 18 -7 3 3 -2 9 -12 12 -14 6 -15 5 -6 -5z"/>
<path d="M1775 1160 c3 -5 11 -10 16 -10 6 0 7 5 4 10 -3 6 -11 10 -16 10 -6
0 -7 -4 -4 -10z"/>
<path d="M2126 822 c-3 -4 4 -9 15 -9 23 -2 25 3 4 10 -8 4 -16 3 -19 -1z"/>
<path d="M2150 786 c0 -2 7 -7 16 -10 8 -3 12 -2 9 4 -6 10 -25 14 -25 6z"/>
<path d="M2281 604 c0 -11 3 -14 6 -6 3 7 2 16 -1 19 -3 4 -6 -2 -5 -13z"/>
<path d="M2130 280 c0 -4 11 -10 25 -12 13 -3 22 -2 20 2 -7 11 -45 20 -45 10z"/>
<path d="M3017 253 c-4 -3 -7 -11 -7 -17 0 -6 5 -5 12 2 6 6 9 14 7 17 -3 3
-9 2 -12 -2z"/>
<path d="M2756 212 c-3 -5 1 -9 9 -9 8 0 12 4 9 9 -3 4 -7 8 -9 8 -2 0 -6 -4
-9 -8z"/>
<path d="M2330 199 c0 -5 5 -7 10 -4 6 3 10 8 10 11 0 2 -4 4 -10 4 -5 0 -10
-5 -10 -11z"/>
</g>
</svg>
