<svg xmlns="http://www.w3.org/2000/svg" width="415" height="502" viewBox="0 0 415 502">
  <g fill="#0A0A08" fill-rule="evenodd">
    <path d="M347.733 459.333L64 459.333C43.733 348.4 43.733 320.666 64 209.733L347.733 209.733C368 320.666 368 348.4 347.733 459.333zM392.533 459.333L391.466 459.333C411.733 352.666 411.733 317.467 391.466 209.733L392.533 209.733C404.267 209.733 414.933 200.133 414.933 188.4 414.933 176.666 405.333 167.066 393.6 167.066L21.333 167.066C9.6 167.066 0 176.666 0 188.4 0 200.133 9.6 209.733 21.333 209.733 1.067 317.467 1.067 351.6 21.333 459.333 9.6 459.333 0 468.933 0 480.666 0 492.4 9.6 502 21.333 502L392.533 502C404.267 502 413.867 492.4 414.933 480.666 413.867 468.933 404.267 459.333 392.533 459.333L392.533 459.333zM94.933 112.666C90.667 123.333 97.067 135.066 107.733 139.333 110.933 140.4 113.067 140.4 115.2 140.4 123.733 140.4 131.2 135.066 134.4 125.467 142.933 100.933 137.6 79.6 133.333 61.466 129.067 46.533 128 38 131.2 33.733 137.6 25.2 136.533 11.333 126.933 4.933 118.4-1.467 104.533-.4 98.133 9.2 82.133 30.533 88.533 52.933 92.8 72.133 96 87.066 99.2 99.866 94.933 112.666M186.667 112.666C182.4 123.333 188.8 135.066 199.467 139.333 202.667 140.4 204.8 140.4 206.934 140.4 215.467 140.4 224 135.066 226.133 125.467 234.667 100.933 229.333 79.6 225.067 61.466 220.8 46.533 219.733 38 222.933 33.733 229.333 25.2 228.267 11.333 218.667 4.933 210.133-1.467 196.267-.4 189.867 9.2 173.867 29.466 180.267 52.933 184.533 72.133 187.733 87.066 190.933 99.866 186.667 112.666M279.466 112.666C275.2 123.333 281.6 135.066 292.267 139.333 295.466 140.4 297.6 140.4 299.733 140.4 308.267 140.4 315.733 135.066 318.933 125.467 327.466 100.933 322.133 79.6 317.867 61.466 313.6 46.533 312.533 38 315.733 33.733 322.133 25.2 321.066 11.333 311.466 4.933 302.933-1.467 289.066-.4 282.666 9.2 266.666 30.533 273.066 52.933 277.333 72.133 280.533 87.066 283.733 99.866 279.466 112.666"/>
  </g>
</svg>
