<svg xmlns="http://www.w3.org/2000/svg" width="239" height="286" viewBox="0 0 239 286">
  <g fill="#000000" fill-rule="evenodd" transform="translate(0 -1)">
    <path d="M128.191,97.95 C128.191,103.403 123.77,107.821 118.32,107.821 C112.867,107.821 108.449,103.403 108.449,97.95 C108.449,92.5 112.867,88.079 118.32,88.079 C123.77,88.079 128.191,92.5 128.191,97.95 Z"/>
    <path d="M194.516,227.36 C189.762,224.809 190.496,220.211 190.496,217.329 L190.496,177.055 C204.395,174.219 234.98,173.957 234.98,146.485 C234.98,132.911 223.906,127.938 210.398,129.313 C199.629,130.407 194.562,137.594 176.316,130.731 C174.004,129.864 167.551,124.172 171.246,119.668 C180.691,108.153 186.02,93.141 186.02,76.977 C186.02,74.336 185.996,69.04 188.367,68.051 C200.516,62.981 208.734,50.391 208.734,36.165 C208.734,16.899 193.395,1.278 174.469,1.278 C164.211,1.278 155.008,5.872 148.727,13.145 C148.18,13.782 147.195,15.106 144.789,14.067 C136.266,10.059 129.133,8.868 119.125,8.868 C108.379,8.868 100.57,10.317 91.57,14.903 C88.73,15.774 86.801,12.848 85.395,11.426 C79.203,5.157 70.672,1.278 61.25,1.278 C42.328,1.278 26.984,16.899 26.984,36.165 C26.984,50.954 36.027,63.594 48.789,68.668 C50.023,69.161 51.93,70.641 52.234,76.977 C53.004,93.004 57.688,107.77 66.805,119.407 C70.188,123.723 66.93,129.293 61.84,130.868 C43.277,136.606 38.59,130.418 27.859,129.313 C14.352,127.918 3.277,132.911 3.277,146.485 C3.277,173.215 33.855,174.168 47.758,176.969 L47.758,217.329 C47.758,220.29 48.172,224.438 42,228.254 C24.754,235.36 0,235.911 0,260.043 C0,274.731 12.18,289.465 26.59,286.633 C44.645,283.086 54.121,277.094 81.512,264.7 C87.41,262.008 91.574,263.356 94.164,263.719 C101.934,264.813 110.344,265.235 119.125,265.235 C128.938,265.235 138.285,264.707 146.793,263.309 C148.938,262.957 153.961,262.754 158.57,264.629 C185.301,277.071 193.879,283.055 211.664,286.633 C226.062,289.532 238.254,274.731 238.254,260.043 C238.258,235.911 211.73,234.559 194.516,227.36 Z M151.504,107.821 C151.504,122.2 136.648,133.856 118.32,133.856 C99.996,133.856 85.137,122.2 85.137,107.821 C85.137,93.442 99.992,81.786 118.32,81.786 C136.645,81.786 151.504,93.442 151.504,107.821 Z M70.57,64.883 C70.57,58.34 75.871,53.036 82.414,53.036 C88.957,53.036 94.262,58.34 94.262,64.883 C94.262,71.426 88.957,76.727 82.414,76.727 C75.871,76.727 70.57,71.422 70.57,64.883 Z M159.215,211.422 C159.215,233.563 141.266,243.504 119.129,243.504 C96.988,243.504 79.043,233.563 79.043,211.422 L79.043,192.575 C79.043,170.434 96.992,152.489 119.129,152.489 C141.266,152.489 159.215,170.438 159.215,192.575 L159.215,211.422 Z M150.031,76.727 C143.488,76.727 138.188,71.422 138.188,64.883 C138.188,58.34 143.488,53.036 150.031,53.036 C156.574,53.036 161.879,58.34 161.879,64.883 C161.879,71.422 156.574,76.727 150.031,76.727 Z"/>
  </g>
</svg>
