<svg xmlns="http://www.w3.org/2000/svg" width="238" height="182" viewBox="0 0 238 182" xmlns:xlink="http://www.w3.org/1999/xlink">
  <g fill="none" fill-rule="evenodd">
    <g transform="translate(27)">
      <path d="M9.344.477L9.324.477C7.078.477 4.965 1.352 3.367 2.946 1.754 4.555.867 6.699.867 8.981L.867 136.473C.867 141.149 4.684 144.961 9.379 144.973 29.168 145.02 62.328 149.145 85.199 173.082L85.199 39.657C85.199 38.071 84.797 36.582 84.031 35.352 65.258 5.117 29.18.524 9.344.477zM182.734 136.473L182.734 8.981C182.734 6.699 181.844 4.555 180.23 2.946 178.637 1.352 176.52.477 174.273.477L174.254.477C154.422.524 118.344 5.117 99.57 35.352 98.805 36.582 98.402 38.071 98.402 39.657L98.402 173.078C121.273 149.145 154.43 145.02 174.223 144.973 178.914 144.957 182.734 141.145 182.734 136.473z"/>
    </g>
    <g transform="translate(0 29)">
      <path d="M229.098.879L222.934.879 222.934 107.473C222.934 119.41 213.207 129.141 201.254 129.172 184.465 129.211 156.789 132.496 137.188 151.047 171.09 142.746 206.828 148.141 227.195 152.785 229.738 153.364 232.367 152.766 234.402 151.141 236.434 149.52 237.598 147.098 237.598 144.5L237.598 9.379C237.602 4.692 233.785.879 229.098.879zM14.664 107.473L14.664.879 8.5.879C3.812.879 0 4.692 0 9.379L0 144.496C0 147.098 1.164 149.52 3.195 151.137 5.23 152.762 7.855 153.364 10.402 152.782 30.773 148.141 66.512 142.742 100.414 151.043 80.812 132.492 53.133 129.211 36.348 129.172 24.391 129.141 14.664 119.41 14.664 107.473z"/>
    </g>
  </g>
</svg>
