<svg xmlns="http://www.w3.org/2000/svg" width="356" height="356" viewBox="0 0 356 356" xmlns:xlink="http://www.w3.org/1999/xlink">
  <g fill="none" fill-rule="evenodd" transform="translate(0 -1)">
    <path fill="#000000" d="M352.398 139.567C357.086 134.883 357.086 127.286 352.398 122.598L334.391 104.59C330.316 100.516 323.922 99.915 319.16 103.149L281.293 128.887 306.875 90.762C310.066 86.004 309.449 79.645 305.395 75.594L266.328 36.528C262.723 32.922 257.23 31.989 252.637 34.204L245.883 37.454 249.117 30.278C251.168 25.731 250.191 20.391 246.664 16.86L234.402 4.602C229.715-.085 222.117-.085 217.43 4.602L122.184 99.848 257.152 234.817 352.398 139.567zM104.449 117.582L76.875 145.157C74.625 147.407 73.359 150.457 73.359 153.641 73.359 156.825 74.625 159.875 76.875 162.125L103.031 188.282C108.07 193.321 110.516 200.274 109.734 207.36 108.961 214.442 105.062 220.704 99.043 224.54 22.188 273.528 15.023 280.696 12.672 283.047-4.223 299.942-4.223 327.434 12.672 344.329 29.582 361.239 57.074 361.207 73.953 344.329 76.305 341.973 83.473 334.805 132.461 257.957 136.289 251.954 142.547 248.063 149.629 247.286 156.734 246.508 163.691 248.942 168.719 253.969L194.871 280.125C199.559 284.809 207.156 284.809 211.844 280.125L239.418 252.551 104.449 117.582zM56.039 324.946C49.418 331.571 38.676 331.571 32.055 324.946 25.43 318.321 25.43 307.582 32.055 300.961 38.68 294.336 49.418 294.336 56.039 300.961 62.664 307.582 62.664 318.321 56.039 324.946z" />
  </g>
</svg>
