<svg xmlns="http://www.w3.org/2000/svg" width="387" height="364" viewBox="0 0 387 364" xmlns:xlink="http://www.w3.org/1999/xlink">
  <g fill="none" fill-rule="evenodd">
    <path fill="#000000" d="M378.879,62.856 C371.922,54.379 361.359,49.656 350.398,49.656 L112.559,49.656 C105.762,49.656 99.281,51.578 93.68,55.016 L81.52,12.539 C79.52,5.578 73.199,0.778 66,0.778 L12.238,0.778 C5.52,0.778 0,6.219 0,13.016 L0,14.297 C0,21.016 5.441,26.539 12.238,26.539 L58.48,26.539 L82.078,109.977 L114.559,225.098 C96.078,229.738 82.398,246.457 82.398,266.297 C82.398,288.778 99.922,307.258 122.078,308.699 C120.238,313.977 119.359,319.817 119.84,325.817 C121.441,346.137 138,362.539 158.32,363.899 C182.559,365.578 202.801,346.297 202.801,322.457 C202.801,317.656 202,313.098 200.48,308.778 L249.121,308.778 C247.121,314.457 246.32,320.778 247.039,327.258 C249.281,346.938 265.52,362.457 285.359,363.899 C309.602,365.578 329.922,346.379 329.922,322.457 C329.922,299.336 310.719,280.856 287.68,280.856 L125.199,280.856 C117.281,280.856 110.559,274.699 110.238,266.856 C109.922,258.539 116.559,251.738 124.801,251.738 L318.641,251.738 C335.121,251.738 349.52,240.457 353.52,224.457 L385.84,94.379 C388.641,83.176 386.078,71.738 378.879,62.856 Z M288.398,308.699 C295.922,308.699 302.078,314.856 302.078,322.379 C302.078,329.899 295.922,336.059 288.398,336.059 C280.879,336.059 274.719,329.899 274.719,322.379 C274.719,314.856 280.801,308.699 288.398,308.699 Z M161.281,308.699 C168.801,308.699 174.961,314.856 174.961,322.379 C174.961,329.899 168.801,336.059 161.281,336.059 C153.762,336.059 147.602,329.899 147.602,322.379 C147.602,314.856 153.68,308.699 161.281,308.699 Z M111.039,109.817 L104.801,87.817 C103.84,84.457 105.199,81.977 106.16,80.778 C107.039,79.578 109.121,77.578 112.559,77.578 L138.641,77.578 L145.762,109.899 L111.039,109.899 L111.039,109.817 Z M118.879,137.656 L151.84,137.656 L158.398,167.578 L127.281,167.578 L118.879,137.656 Z M149.199,223.738 C145.602,223.738 142.398,221.336 141.441,217.817 L135.121,195.418 L164.48,195.418 L170.719,223.656 L149.199,223.656 L149.199,223.738 Z M218.879,223.738 L199.199,223.738 L192.961,195.496 L218.801,195.496 L218.801,223.738 L218.879,223.738 Z M218.879,167.578 L186.879,167.578 L180.32,137.656 L218.879,137.656 L218.879,167.578 Z M218.879,109.817 L174.238,109.817 L167.121,77.496 L218.879,77.496 L218.879,109.817 Z M268.801,223.738 L246.801,223.738 L246.801,195.496 L274.719,195.496 L268.801,223.738 Z M280.641,167.578 L246.801,167.578 L246.801,137.656 L286.961,137.656 L280.641,167.578 Z M246.801,109.817 L246.801,77.496 L299.602,77.496 L292.801,109.817 L246.801,109.817 Z M326.559,217.656 C325.68,221.258 322.48,223.817 318.719,223.817 L297.281,223.817 L303.281,195.578 L332.078,195.578 L326.559,217.656 Z M338.961,167.578 L309.121,167.578 L315.441,137.656 L346.398,137.656 L338.961,167.578 Z M358.801,87.496 L353.281,109.738 L321.281,109.738 L328.078,77.418 L350.961,77.418 C354.398,77.418 356.398,79.336 357.281,80.539 C358.238,81.738 359.68,84.219 358.801,87.496 Z"/>
  </g>
</svg>
