<svg xmlns="http://www.w3.org/2000/svg" width="393" height="338" viewBox="0 0 393 338">
  <path fill="#000000" fill-rule="evenodd" d="M377.602,19.773 L367.098,10.749 C349.66,-4.239 323.453,-2.567 308.059,14.507 L132.312,209.374 L79.262,163.683 C61.844,148.679 35.633,150.316 20.219,167.374 L10.93,177.652 C3.398,185.98 -0.516,196.972 0.055,208.195 C0.629,219.413 5.633,229.945 13.977,237.476 L111.219,326.523 C119.637,334.429 130.922,338.55 142.453,337.941 C153.984,337.331 164.77,332.031 172.301,323.277 L382.098,79.511 C389.43,70.992 393.07,59.913 392.227,48.71 C391.383,37.503 386.125,27.097 377.602,19.773 Z"/>
</svg>
