<svg xmlns="http://www.w3.org/2000/svg" width="151" height="144" viewBox="0 0 151 144" xmlns:xlink="http://www.w3.org/1999/xlink">
  <g fill="none" fill-rule="evenodd">
    <path fill="#000000" d="M131.395 76.697L120.961 76.697 121.512 65.127C121.574 63.814 121.098 62.533 120.191 61.584 119.285 60.634 118.031 60.099 116.719 60.099L11.125 60.099C9.809 60.099 8.555 60.634 7.648 61.584 6.742 62.537 6.266 63.814 6.328 65.127L8.461 109.834C8.988 120.88 15.754 130.177 25.262 134.4L4.801 134.4C2.148 134.4 0 136.548 0 139.201 0 141.849 2.148 144.002 4.801 144.002L123.719 144.002C126.367 144.002 128.52 141.849 128.52 139.201 128.52 136.548 126.367 134.4 123.719 134.4L102.578 134.4C110.289 130.974 116.188 124.22 118.43 115.896L131.395 115.896C142.203 115.896 150.996 107.103 150.996 96.295 150.996 85.49 142.203 76.697 131.395 76.697zM91.059 127.24L36.785 127.24C26.758 127.24 18.527 119.392 18.047 109.377L16.156 69.697 111.684 69.697 109.793 109.377C109.316 119.392 101.086 127.24 91.059 127.24zM131.395 106.295L119.551 106.295 120.504 86.287C120.574 86.287 120.645 86.295 120.719 86.295L131.395 86.295C136.91 86.295 141.395 90.779 141.395 96.295 141.395 101.81 136.91 106.295 131.395 106.295zM49.816 52.228C50.582 52.681 51.422 52.9 52.254 52.9 53.895 52.9 55.496 52.056 56.391 50.541 57.738 48.259 56.984 45.314 54.699 43.966 52.031 42.388 50.188 39.478 49.641 35.982 49.07 32.341 50.023 28.716 52.184 26.287 52.203 26.263 52.223 26.24 52.238 26.22 52.762 25.611 53.285 25.009 53.801 24.416 58.242 19.318 62.832 14.045 64.152 6.373 64.602 3.759 62.848 1.279 60.234.83 57.621.38 55.141 2.134 54.691 4.748 53.828 9.767 50.461 13.634 46.562 18.111 46.035 18.712 45.508 19.322 44.977 19.939 40.953 24.49 39.152 31.037 40.156 37.462 41.145 43.806 44.668 49.185 49.816 52.228zM64.711 41.392C66.297 45.47 69.125 49.209 72.676 51.916 73.543 52.576 74.566 52.896 75.582 52.896 77.027 52.896 78.457 52.248 79.402 51.005 81.008 48.9 80.602 45.888 78.492 44.279 76.363 42.654 74.602 40.337 73.66 37.916 71.789 33.099 73.562 28.295 79.59 21.861 83.863 17.298 86.594 11.923 87.488 6.314 87.906 3.697 86.121 1.236 83.504.822 80.887.404 78.426 2.185 78.008 4.806 77.406 8.564 75.582 12.095 72.582 15.298 69.434 18.658 59.859 28.888 64.711 41.392z"/>
  </g>
</svg>
