<svg xmlns="http://www.w3.org/2000/svg" width="44" height="58" viewBox="0 0 44 58" xmlns:xlink="http://www.w3.org/1999/xlink">
  <g fill="none" fill-rule="evenodd">
    <path fill="#000000" d="M41.602,58.002 C40.719,58.002 40,57.283 40,56.4 L40,3.599 L3.199,3.599 L3.199,56.4 C3.199,57.283 2.484,58.002 1.602,58.002 C0.719,58.002 0,57.283 0,56.4 L0,2.002 C0,1.119 0.719,0.4 1.602,0.4 L41.602,0.4 C42.484,0.4 43.199,1.119 43.199,2.002 L43.199,56.4 C43.199,57.283 42.484,58.002 41.602,58.002 Z M5.199,6.4 L38,6.4 L38,56.4 L5.199,56.4 L5.199,6.4 Z M13.199,31.798 C13.199,30.365 12.215,29.201 11,29.201 C9.785,29.201 8.801,30.365 8.801,31.798 C8.801,33.236 9.785,34.4 11,34.4 C12.215,34.4 13.199,33.236 13.199,31.798 Z" />
  </g>
</svg>
