<svg xmlns="http://www.w3.org/2000/svg" width="512" height="512" viewBox="0 0 512 512" xmlns:xlink="http://www.w3.org/1999/xlink">
  <g fill="none" fill-rule="evenodd" transform="translate(0 -1)">
    <g transform="translate(0 145)">
      <path fill="#0A0A08" d="M434.086 100.87L478.608 100.87 478.608 134.262 434.086 134.262 434.086 100.87zM383.999 334.609C374.782 334.609 367.304 342.087 367.304 351.305 367.304 360.522 374.782 368 383.999 368L456.347 368C465.564 368 473.042 360.522 473.042 351.305 473.042 342.087 465.564 334.609 456.347 334.609L434.086 334.609 434.086 167.653 478.608 167.653 478.608 184.348C478.608 193.565 486.086 201.044 495.303 201.044 504.52 201.044 511.999 193.565 511.999 184.348L511.999 50.783C511.999 41.561 504.52 34.088 495.303 34.088 486.086 34.088 478.608 41.561 478.608 50.783L478.608 67.479 434.086 67.479 434.086 34.088C434.086 15.646 419.137.697 400.695.697 382.253.697 367.304 15.646 367.304 34.088L367.304 267.826C367.304 286.268 382.253 301.218 400.695 301.218L400.695 334.609 383.999 334.609 383.999 334.609zM33.391 100.87L66.782 100.87 66.782 134.262 33.391 134.262 33.391 100.87zM66.783 334.609L50.087 334.609C40.87 334.609 33.391 342.087 33.391 351.305 33.391 360.522 40.87 368 50.087 368L122.435 368C131.652 368 139.13 360.522 139.13 351.305 139.13 342.087 131.652 334.609 122.435 334.609L100.174 334.609 100.174 301.218C118.616 301.218 133.565 286.268 133.565 267.826L133.565 34.088C133.565 15.646 118.616.697 100.174.697 81.732.697 66.783 15.646 66.783 34.088L66.783 67.479 16.696 67.479C7.479 67.479 0 74.952 0 84.175L0 150.957C0 160.18 7.479 167.653 16.696 167.653L66.783 167.653 66.783 334.609 66.783 334.609z"/>
    </g>
    <path fill="#0A0A08" d="M166.956,179.088 L166.956,412.826 C166.956,431.268 181.905,446.218 200.347,446.218 C218.789,446.218 233.739,431.268 233.739,412.826 L233.739,179.088 C233.739,160.646 218.789,145.697 200.347,145.697 C181.905,145.697 166.956,160.646 166.956,179.088"/>
    <g fill="#0A0A08" transform="translate(133 1)">
      <path d="M167.521 144.697C149.079 144.697 134.13 159.646 134.13 178.088L134.13 411.826C134.13 430.268 149.079 445.218 167.521 445.218 185.963 445.218 200.912 430.268 200.912 411.826L200.912 178.088C200.912 159.646 185.963 144.697 167.521 144.697M40.782 1.457C32.369-2.298 22.478 1.452 18.717 9.875 14.945 18.293 18.717 28.169 27.131 31.934 27.946 32.293 28.903 32.809 29.881 33.391 18.751 40.004.566 47.637.566 66.783.566 85.38 20.902 95.93 27.131 98.717 35.619 102.503 45.453 98.672 49.196 90.299 52.968 81.881 49.196 72.005 40.782 68.24 39.968 67.881 39.01 67.365 38.032 66.783 49.163 60.17 67.347 52.537 67.347 33.391 67.347 14.795 47.011 4.245 40.782 1.457M129.826 1.457C121.412-2.298 111.522 1.452 107.761 9.875 103.989 18.293 107.761 28.169 116.174 31.934 116.989 32.293 117.946 32.809 118.925 33.391 107.794 40.004 89.609 47.637 89.609 66.783 89.609 85.38 109.946 95.93 116.174 98.717 124.662 102.503 134.496 98.672 138.239 90.299 142.011 81.881 138.239 72.005 129.826 68.24 129.011 67.881 128.054 67.365 127.075 66.783 138.206 60.17 156.391 52.537 156.391 33.391 156.391 14.795 136.054 4.245 129.826 1.457M245.434 33.393C245.434 14.795 225.098 4.245 218.869 1.458 210.456-2.297 200.565 1.453 196.804 9.876 193.032 18.294 196.804 28.17 205.218 31.936 206.032 32.294 206.99 32.81 207.968 33.393 196.837 40.005 178.653 47.638 178.653 66.784 178.653 85.382 198.989 95.931 205.218 98.718 213.706 102.505 223.539 98.674 227.282 90.3 231.055 81.882 227.282 72.006 218.869 68.241 218.054 67.882 217.097 67.366 216.119 66.784 227.249 60.17 245.434 52.538 245.434 33.393"/>
    </g>
  </g>
</svg>
