<svg xmlns="http://www.w3.org/2000/svg" width="298" height="296" viewBox="0 0 298 296" xmlns:xlink="http://www.w3.org/1999/xlink">
  <g fill="none" fill-rule="evenodd" transform="translate(0 -1)">
    <g transform="translate(0 1)">
      <path fill="#000000" d="M282.016,103.129 L171.121,103.129 C168.879,103.129 168.953,100.816 168.953,100.816 L168.953,49.766 C168.953,41.383 162.133,34.566 153.754,34.566 L131.73,34.566 C128.879,34.566 129.211,32.363 129.211,32.363 L129.211,16.164 C129.211,7.785 122.395,0.965 114.012,0.965 L54.941,0.965 C46.559,0.965 39.742,7.785 39.742,16.164 L39.742,31.965 C39.742,31.965 40.23,34.566 36.828,34.566 L15.199,34.566 C6.82,34.566 0,41.383 0,49.766 L0,280.801 C0,289.184 6.82,296 15.199,296 L282.016,296 C290.398,296 297.219,289.184 297.219,280.801 L297.219,118.328 C297.215,109.949 290.398,103.129 282.016,103.129 Z M69.891,154.687 L69.891,172.937 C69.891,175.141 68.094,176.937 65.891,176.937 L31.77,176.937 C29.566,176.937 27.77,175.141 27.77,172.937 L27.77,154.687 C27.77,152.48 29.566,150.687 31.77,150.687 L65.891,150.687 C68.094,150.687 69.891,152.48 69.891,154.687 Z M69.891,104.633 C69.891,106.84 68.094,108.633 65.891,108.633 L31.77,108.633 C29.566,108.633 27.77,106.84 27.77,104.633 L27.77,86.383 C27.77,84.176 29.566,82.383 31.77,82.383 L65.891,82.383 C68.094,82.383 69.891,84.176 69.891,86.383 L69.891,104.633 Z M99.062,154.687 C99.062,152.48 100.855,150.687 103.062,150.687 L137.18,150.687 C139.387,150.687 141.18,152.48 141.18,154.687 L141.18,172.937 C141.18,175.141 139.387,176.937 137.18,176.937 L103.062,176.937 C100.855,176.937 99.062,175.141 99.062,172.937 L99.062,154.687 Z M141.18,104.633 C141.18,106.84 139.387,108.633 137.18,108.633 L103.062,108.633 C100.855,108.633 99.062,106.84 99.062,104.633 L99.062,86.383 C99.062,84.176 100.855,82.383 103.062,82.383 L137.18,82.383 C139.387,82.383 141.18,84.176 141.18,86.383 L141.18,104.633 Z M61.543,214.348 C61.543,212.145 63.336,210.348 65.543,210.348 L103.41,210.348 C105.613,210.348 107.41,212.145 107.41,214.348 L107.41,269.766 C107.41,271.969 105.613,273.766 103.41,273.766 L65.543,273.766 C63.336,273.766 61.543,271.969 61.543,269.766 L61.543,214.348 Z M234.59,164.156 L234.59,145.902 C234.59,143.699 236.383,141.902 238.59,141.902 L272.707,141.902 C274.914,141.902 276.707,143.699 276.707,145.902 L276.707,164.156 C276.707,166.359 274.914,168.156 272.707,168.156 L238.59,168.156 C236.383,168.156 234.59,166.359 234.59,164.156 Z M234.59,214.207 C234.59,212 236.383,210.207 238.59,210.207 L272.707,210.207 C274.914,210.207 276.707,212 276.707,214.207 L276.707,232.457 C276.707,234.664 274.914,236.457 272.707,236.457 L238.59,236.457 C236.383,236.457 234.59,234.664 234.59,232.457 L234.59,214.207 Z M172.898,214.207 C172.898,212 174.691,210.207 176.898,210.207 L211.016,210.207 C213.223,210.207 215.016,212 215.016,214.207 L215.016,232.457 C215.016,234.664 213.223,236.457 211.016,236.457 L176.898,236.457 C174.691,236.457 172.898,234.664 172.898,232.457 L172.898,214.207 Z M215.02,164.156 C215.02,166.359 213.223,168.156 211.02,168.156 L176.898,168.156 C174.695,168.156 172.898,166.359 172.898,164.156 L172.898,145.902 C172.898,143.699 174.695,141.902 176.898,141.902 L211.02,141.902 C213.223,141.902 215.02,143.699 215.02,145.902 L215.02,164.156 Z"/>
    </g>
    <path fill="#000000" d="M102.234,32.359 L93.531,32.359 C93.531,32.359 91.945,32.445 91.945,31.223 L91.945,22.074 C91.945,17.945 88.602,14.602 84.477,14.602 C80.348,14.602 77.004,17.945 77.004,22.074 L77.004,30.637 C77.004,32.445 75.145,32.359 75.145,32.359 L66.719,32.359 C62.59,32.359 59.246,35.703 59.246,39.832 C59.246,43.957 62.59,47.301 66.719,47.301 L75.379,47.301 C75.379,47.301 77.004,47.156 77.004,48.906 L77.004,57.59 C77.004,61.715 80.348,65.062 84.477,65.062 C88.602,65.062 91.945,61.715 91.945,57.59 L91.945,48.789 C91.945,47.328 93.824,47.301 93.824,47.301 L102.234,47.301 C106.359,47.301 109.703,43.957 109.703,39.832 C109.703,35.703 106.359,32.359 102.234,32.359 Z"/>
  </g>
</svg>
