<svg xmlns="http://www.w3.org/2000/svg" width="26" height="26" viewBox="0 0 26 26">
  <g fill="#000000" fill-rule="evenodd">
    <path d="M12.543,0.914 C5.625,0.914 0,6.539 0,13.457 C0,20.375 5.625,26 12.543,26 C19.457,26 25.086,20.375 25.086,13.457 C25.086,6.539 19.457,0.914 12.543,0.914 Z M12.543,24.004 C6.727,24.004 1.996,19.274 1.996,13.457 C1.996,7.641 6.727,2.91 12.543,2.91 C18.359,2.91 23.09,7.641 23.09,13.457 C23.09,19.274 18.359,24.004 12.543,24.004 Z"/>
    <path d="M15.395,10.809 L15.395,6.778 C15.395,6.082 14.832,5.524 14.137,5.524 L11.422,5.524 C10.727,5.524 10.164,6.086 10.164,6.778 L10.164,10.809 L6.133,10.809 C5.438,10.809 4.879,11.371 4.879,12.067 L4.879,14.84 C4.879,15.532 5.438,16.094 6.133,16.094 L10.164,16.094 L10.164,20.125 C10.164,20.821 10.727,21.383 11.418,21.383 L14.137,21.383 C14.832,21.383 15.395,20.821 15.395,20.125 L15.395,16.094 L19.422,16.094 C20.117,16.094 20.68,15.532 20.68,14.84 L20.68,12.067 C20.68,11.371 20.117,10.809 19.422,10.809 L15.395,10.809 Z"/>
  </g>
</svg>
