<svg xmlns="http://www.w3.org/2000/svg" width="512" height="512" viewBox="0 0 512 512" xmlns:xlink="http://www.w3.org/1999/xlink">
  <g fill="none" fill-rule="evenodd">
    <path fill="#0A0A08" d="M100.174,66.783 L244.87,66.783 L244.87,133.565 L100.174,133.565 L100.174,66.783 Z M378.435,267.13 L445.217,267.13 L445.217,411.826 L378.435,411.826 L378.435,267.13 Z M16.696,200.348 L83.478,200.348 C92.695,200.348 100.174,192.875 100.174,183.652 L100.174,166.957 L261.565,166.957 C307.597,166.957 345.043,204.403 345.043,250.435 L345.043,411.826 L328.348,411.826 C319.131,411.826 311.652,419.299 311.652,428.522 L311.652,495.304 C311.652,504.527 319.131,512 328.348,512 L495.304,512 C504.521,512 512,504.527 512,495.304 L512,428.522 C512,419.299 504.521,411.826 495.304,411.826 L478.609,411.826 L478.609,224 C478.609,118.896 393.098,33.391 288,33.391 L100.174,33.391 L100.174,16.696 C100.174,7.473 92.695,0 83.478,0 L16.696,0 C7.479,0 0,7.473 0,16.696 L0,183.652 C0,192.875 7.479,200.348 16.696,200.348 L16.696,200.348 Z"/>
    <path fill="#0A0A08" d="M133.565,333.913 L200.348,333.913 L200.348,411.826 L133.565,411.826 L133.565,333.913 Z M83.478,411.826 C74.261,411.826 66.783,419.299 66.783,428.522 L66.783,495.304 C66.783,504.527 74.261,512 83.478,512 L250.435,512 C259.652,512 267.13,504.527 267.13,495.304 L267.13,428.522 C267.13,419.299 259.652,411.826 250.435,411.826 L233.739,411.826 L233.739,333.913 L250.435,333.913 C259.652,333.913 267.13,326.44 267.13,317.217 L267.13,250.435 C267.13,241.212 259.652,233.739 250.435,233.739 L83.478,233.739 C74.261,233.739 66.783,241.212 66.783,250.435 L66.783,317.217 C66.783,326.44 74.261,333.913 83.478,333.913 L100.174,333.913 L100.174,411.826 L83.478,411.826 L83.478,411.826 Z"/>
  </g>
</svg>
