<svg xmlns="http://www.w3.org/2000/svg" width="512" height="512" viewBox="0 0 512 512" xmlns:xlink="http://www.w3.org/1999/xlink">
  <g fill="none" fill-rule="evenodd" transform="translate(0 -1)">
    <g transform="translate(0 1)">
      <path fill="#0A0A08" d="M503.467,0 L469.333,0 C464.614,0 460.8,3.823 460.8,8.533 L460.8,443.733 C460.8,453.146 453.146,460.8 443.733,460.8 L349.867,460.8 C340.454,460.8 332.8,453.146 332.8,443.733 L332.8,68.267 C332.8,30.626 302.174,0 264.533,0 L153.6,0 C115.959,0 85.333,30.626 85.333,68.267 L85.333,119.467 L76.8,119.467 C67.388,119.467 59.733,127.121 59.733,136.533 L59.733,153.6 L34.116,153.6 C15.309,153.6 0,168.9 0,187.716 L0,477.884 C0,496.7 15.309,512 34.116,512 L187.75,512 C206.558,512 221.867,496.7 221.867,477.884 L221.867,187.716 C221.867,168.9 206.558,153.6 187.75,153.6 L162.133,153.6 L162.133,136.533 C162.133,127.121 154.479,119.467 145.067,119.467 L136.533,119.467 L136.533,68.267 C136.533,58.854 144.188,51.2 153.6,51.2 L264.533,51.2 C273.946,51.2 281.6,58.854 281.6,68.267 L281.6,443.733 C281.6,481.374 312.226,512 349.867,512 L443.733,512 C481.374,512 512,481.374 512,443.733 L512,8.533 C512,3.823 508.186,0 503.467,0 Z M110.933,477.867 C73.293,477.867 42.667,447.241 42.667,409.6 C42.667,371.96 73.293,341.333 110.933,341.333 C148.574,341.333 179.2,371.96 179.2,409.6 C179.2,447.241 148.574,477.867 110.933,477.867 Z M110.933,324.267 C73.293,324.267 42.667,293.641 42.667,256 C42.667,218.359 73.293,187.733 110.933,187.733 C148.574,187.733 179.2,218.359 179.2,256 C179.2,293.641 148.574,324.267 110.933,324.267 Z M76.8,136.533 L145.067,136.533 L145.067,153.6 L76.8,153.6 L76.8,136.533 Z"/>
    </g>
    <g fill="#0A0A08" transform="translate(59 206)">
      <path d="M60.465.568L60.465 8.333C60.465 13.044 56.651 16.867 51.932 16.867 47.213 16.867 43.398 13.044 43.398 8.333L43.398.568C19.223 4.655.732 25.682.732 51 .732 76.318 19.223 97.345 43.398 101.432L43.398 93.667C43.398 88.956 47.213 85.133 51.932 85.133 56.651 85.133 60.465 88.956 60.465 93.667L60.465 101.432C84.64 97.345 103.132 76.318 103.132 51 103.132 25.682 84.64 4.655 60.465.568M30.632 63.8C23.584 63.8 17.867 58.066 17.867 51 17.867 43.934 23.584 38.2 30.632 38.2 37.681 38.2 43.398 43.934 43.398 51 43.398 58.066 37.681 63.8 30.632 63.8M73.299 63.8C66.251 63.8 60.533 58.066 60.533 51 60.533 43.934 66.251 38.2 73.299 38.2 80.348 38.2 86.065 43.934 86.065 51 86.065 58.066 80.348 63.8 73.299 63.8M60.465 154.168L60.465 161.933C60.465 166.644 56.651 170.467 51.932 170.467 47.213 170.467 43.398 166.644 43.398 161.933L43.398 154.168C19.223 158.255.732 179.282.732 204.6.732 229.918 19.223 250.945 43.398 255.032L43.398 247.267C43.398 242.556 47.213 238.733 51.932 238.733 56.651 238.733 60.465 242.556 60.465 247.267L60.465 255.032C84.64 250.945 103.132 229.918 103.132 204.6 103.132 179.282 84.64 158.255 60.465 154.168M30.632 217.4C23.584 217.4 17.867 211.666 17.867 204.6 17.867 197.534 23.584 191.8 30.632 191.8 37.681 191.8 43.398 197.534 43.398 204.6 43.398 211.666 37.681 217.4 30.632 217.4M73.299 217.4C66.251 217.4 60.533 211.666 60.533 204.6 60.533 197.534 66.251 191.8 73.299 191.8 80.348 191.8 86.065 197.534 86.065 204.6 86.065 211.666 80.348 217.4 73.299 217.4"/>
    </g>
  </g>
</svg>
