<svg xmlns="http://www.w3.org/2000/svg" width="76" height="76" viewBox="0 0 76 76" xmlns:xlink="http://www.w3.org/1999/xlink">
  <g fill="none" fill-rule="evenodd">
    <g fill="#000000" transform="translate(12 13)">
      <polygon points="28.48 50.781 50.925 50.781 50.925 28.336 28.48 28.336"/>
      <polygon points=".219 22.52 22.664 22.52 22.664 .075 .219 .075"/>
    </g>
    <polygon fill="#000000" points="40.48 35.52 62.925 35.52 62.925 13.075 40.48 13.075"/>
    <path fill="#000000" d="M73.066,0.856 L2.078,0.856 C0.93,0.856 0,1.786 0,2.934 L0,73.922 C0,75.067 0.93,76.001 2.078,76.001 L73.066,76.001 C74.215,76.001 75.145,75.067 75.145,73.922 L75.145,2.934 C75.145,1.786 74.215,0.856 73.066,0.856 Z M6.398,7.254 L68.742,7.254 L68.742,69.598 L6.398,69.598 L6.398,7.254 Z"/>
    <polygon fill="#000000" points="12.219 63.781 34.664 63.781 34.664 41.336 12.219 41.336"/>
  </g>
</svg>
