<svg xmlns="http://www.w3.org/2000/svg" width="38" height="31" viewBox="0 0 38 31" xmlns:xlink="http://www.w3.org/1999/xlink">
  <g fill="none" fill-rule="evenodd">
    <path fill="#000000" d="M18.9394815,0.474434783 C8.4937037,0.474434783 0,8.87095652 0,19.1972174 C0,23.0344348 1.18222222,26.7353043 3.40874074,29.8921739 C3.72259259,30.3387826 4.23911111,30.610087 4.79362963,30.610087 L33.0797037,30.610087 C33.63,30.610087 34.1521481,30.3443478 34.4645926,29.8921739 C36.6967407,26.7353043 37.8733333,23.0344348 37.8733333,19.1972174 C37.8733333,8.87095652 29.3796296,0.474434783 18.9394815,0.474434783 Z M32.1719259,27.2681739 L5.70703704,27.2681739 C4.17859259,24.8389565 3.38059259,22.0605217 3.38059259,19.1972174 C3.38059259,10.7130435 10.3571111,3.81078261 18.9394815,3.81078261 C27.5162222,3.81078261 34.4983704,10.7130435 34.4983704,19.1972174 C34.4983704,22.0605217 33.6947407,24.8389565 32.1719259,27.2681739 Z M16.872,7.936 C16.872,6.81043478 17.7966667,5.89773913 18.9394815,5.89773913 C20.0780741,5.89773913 21.0013333,6.81043478 21.0013333,7.936 C21.0013333,9.06156522 20.0780741,9.97982609 18.9394815,9.97982609 C17.7966667,9.97982609 16.872,9.06156522 16.872,7.936 Z M10.495037,19.6257391 C10.495037,20.7513043 9.57177778,21.664 8.42755556,21.664 C7.29037037,21.664 6.3657037,20.7513043 6.3657037,19.6257391 C6.3657037,18.496 7.29037037,17.5833043 8.42755556,17.5833043 C9.57177778,17.5833043 10.495037,18.496 10.495037,19.6257391 Z M31.5132593,19.6257391 C31.5132593,20.7513043 30.582963,21.664 29.4457778,21.664 C28.3015556,21.664 27.3839259,20.7513043 27.3839259,19.6257391 C27.3839259,18.496 28.3015556,17.5833043 29.4457778,17.5833043 C30.582963,17.5833043 31.5132593,18.496 31.5132593,19.6257391 Z M25.6795556,14.0118261 L21.842963,21.1102609 C23.3868889,22.0716522 24.4255556,23.7565217 24.4255556,25.6973913 L13.4477778,25.6973913 C13.4477778,22.8702609 15.6405185,20.5718261 18.4398519,20.3213913 L22.7057037,12.4354783 C23.1448148,11.6257391 24.168,11.3168696 24.9871111,11.7509565 C25.8118519,12.1864348 26.1200741,13.1965217 25.6795556,14.0118261 Z"/>
  </g>
</svg>
