<svg xmlns="http://www.w3.org/2000/svg" width="84" height="93" viewBox="0 0 84 93">
  <g fill="#000000" fill-rule="evenodd" transform="translate(0 -1)">
    <path d="M0,52.241 C0,75.28 18.719,93.999 41.762,93.999 C64.801,93.999 83.52,75.28 83.52,52.241 C83.52,40.8 78.879,30.319 71.359,22.8 L74.641,19.518 L76.16,21.042 C76.801,21.678 77.602,21.999 78.48,21.999 C79.359,21.999 80.16,21.678 80.801,21.042 C82.078,19.76 82.078,17.678 80.801,16.401 L73.199,8.8 C71.922,7.518 69.84,7.518 68.559,8.8 C67.281,10.081 67.281,12.159 68.559,13.44 L70.078,14.96 L66.48,18.561 C60.398,14.081 53.121,11.28 45.121,10.639 L45.121,7.839 L52.398,7.839 C54.238,7.839 55.68,6.401 55.68,4.561 C55.68,2.721 54.238,1.28 52.398,1.28 L30.801,1.28 C28.961,1.28 27.52,2.721 27.52,4.561 C27.52,6.401 28.961,7.839 30.801,7.839 L38.559,7.839 L38.559,10.639 C16.961,12.319 0,30.319 0,52.241 Z M41.762,17.042 C61.199,17.042 77.039,32.882 77.039,52.319 C77.039,71.76 61.199,87.6 41.762,87.6 C22.32,87.6 6.48,71.76 6.48,52.319 C6.48,32.8 22.32,17.042 41.762,17.042 Z"/>
    <path d="M41.762,54.96 L55.762,54.96 C57.602,54.96 59.039,53.518 59.039,51.678 C59.039,49.839 57.602,48.401 55.762,48.401 L45.039,48.401 L45.039,31.518 C45.039,29.678 43.602,28.241 41.762,28.241 C39.922,28.241 38.48,29.678 38.48,31.518 L38.48,51.76 C38.48,53.518 39.922,54.96 41.762,54.96 Z"/>
  </g>
</svg>
